<?xml version="1.0" encoding="utf-8"?>
<!-- Generator: Adobe Illustrator 23.0.1, SVG Export Plug-In . SVG Version: 6.00 Build 0)  -->
<svg version="1.1" id="Capa_1" xmlns="http://www.w3.org/2000/svg" xmlns:xlink="http://www.w3.org/1999/xlink" x="0px" y="0px"
	 viewBox="0 0 512 512" style="enable-background:new 0 0 512 512;" xml:space="preserve">
<style type="text/css">
	.st0{fill:#567E93;}
	.st1{fill:#223A46;}
</style>
<path class="st0" d="M256,0C114.6,0,0,114.6,0,256s114.6,256,256,256s256-114.6,256-256S397.4,0,256,0z M255.6,448.3
	c-85.6,0-161.5-57.4-184.7-139.6c-1.3-4.8-0.4-10,2.7-14c3-4,7.7-6.3,12.7-6.3H425c5,0,9.7,2.4,12.7,6.4c3,4,4,9.2,2.6,14
	C417.2,390.9,341.2,448.3,255.6,448.3z"/>
<g>
	<path class="st1" d="M399.7,208.3c-8.8,0-16-7.2-16-16c0-17.6-14.3-32-32-32s-32,14.4-32,32c0,8.8-7.2,16-16,16s-16-7.2-16-16
		c0-35.3,28.7-64,64-64s64,28.7,64,64C415.7,201.2,408.5,208.3,399.7,208.3z"/>
	<path class="st1" d="M207.7,208.3c-8.8,0-16-7.2-16-16c0-17.6-14.4-32-32-32s-32,14.4-32,32c0,8.8-7.2,16-16,16s-16-7.2-16-16
		c0-35.3,28.7-64,64-64s64,28.7,64,64C223.7,201.2,216.5,208.3,207.7,208.3z"/>
</g>
</svg>
