<svg xmlns="http://www.w3.org/2000/svg" width="1918.581" height="789.588" viewBox="0 0 1918.581 789.588">
  <g id="Groupe_54" data-name="Groupe 54" transform="translate(-344.49 -914)">
    <path id="Tracé_98" data-name="Tracé 98" d="M.49,1988.576c449.348-110.709,1019.767-106.529,1019.767-106.529s562.226-58.611,551.373-167.148,347.441-185.459,347.441-185.459v306.924s-220.219,6.881-347.441,84.757-151.3,165.849-293.052,134.587-509.8,99.88-509.8,99.88L.49,2155.294Z" transform="translate(344 -452)" fill="#0a2432"/>
    <g id="Cercles" transform="translate(368 -496)">
      <circle id="Ellipse_13" data-name="Ellipse 13" cx="16.5" cy="16.5" r="16.5" transform="translate(1096 1493)" fill="#2c5165"/>
      <circle id="Ellipse_14" data-name="Ellipse 14" cx="29" cy="29" r="29" transform="translate(1336 1601)" fill="#2c5165"/>
      <circle id="Ellipse_15" data-name="Ellipse 15" cx="33.5" cy="33.5" r="33.5" transform="translate(1046 1583)" fill="#2c5165"/>
      <circle id="Ellipse_16" data-name="Ellipse 16" cx="15" cy="15" r="15" transform="translate(929 1508)" fill="#2c5165"/>
      <circle id="Ellipse_17" data-name="Ellipse 17" cx="34.5" cy="34.5" r="34.5" transform="translate(1011 1791)" fill="#2c5165"/>
      <circle id="Ellipse_18" data-name="Ellipse 18" cx="21" cy="21" r="21" transform="translate(1433 1468)" fill="#2c5165"/>
      <circle id="Ellipse_19" data-name="Ellipse 19" cx="13.5" cy="13.5" r="13.5" transform="translate(723 1612)" fill="#2c5165"/>
      <circle id="Ellipse_20" data-name="Ellipse 20" cx="6.5" cy="6.5" r="6.5" transform="translate(877 1769)" fill="#2c5165"/>
      <circle id="Ellipse_21" data-name="Ellipse 21" cx="19.5" cy="19.5" r="19.5" transform="translate(1730 1502)" fill="#2c5165"/>
      <circle id="Ellipse_23" data-name="Ellipse 23" cx="16.5" cy="16.5" r="16.5" transform="translate(1217 1715)" fill="#2c5165"/>
      <circle id="Ellipse_24" data-name="Ellipse 24" cx="16.5" cy="16.5" r="16.5" transform="translate(1490 1699)" fill="#2c5165"/>
      <circle id="Ellipse_25" data-name="Ellipse 25" cx="6.5" cy="6.5" r="6.5" transform="translate(1494 2067)" fill="#2c5165"/>
      <circle id="Ellipse_26" data-name="Ellipse 26" cx="15" cy="15" r="15" transform="translate(1677 2044)" fill="#2c5165"/>
      <circle id="Ellipse_27" data-name="Ellipse 27" cx="6.5" cy="6.5" r="6.5" transform="translate(1269 1410)" fill="#2c5165"/>
    </g>
  </g>
</svg>
