<?xml version="1.0" encoding="utf-8"?>
<!-- Generator: Adobe Illustrator 23.0.1, SVG Export Plug-In . SVG Version: 6.00 Build 0)  -->
<svg version="1.1" id="Calque_1" xmlns="http://www.w3.org/2000/svg" xmlns:xlink="http://www.w3.org/1999/xlink" x="0px" y="0px"
	 viewBox="0 0 404 404" style="enable-background:new 0 0 404 404;" xml:space="preserve">
<style type="text/css">
	.st0{fill:#5A03CC;}
	.st1{fill:#FFFFFF;}
</style>
<path class="st0" d="M335.3,0H68.4c-5.5,0-10,4.5-10,10v374c0,7.5,4.2,14.4,10.8,17.8c6.7,3.4,14.7,2.8,20.8-1.5l111.8-80.2
	l111.8,80.2c6.1,4.4,14.1,5,20.8,1.5c6.7-3.4,10.8-10.3,10.8-17.8V10C345.3,4.5,340.9,0,335.3,0z"/>
<g>
	<g>
		<g>
			<path class="st1" d="M285.5,60h-167c-10.2,0-18.6,8.3-18.6,18.6v27.8c0,10.2,8.3,18.6,18.6,18.6h167c10.2,0,18.6-8.3,18.6-18.6
				V78.6C304.1,68.3,295.8,60,285.5,60z M137,101.8c0,2.6-2.1,4.6-4.6,4.6c-2.6,0-4.6-2.1-4.6-4.6V83.2c0-2.6,2.1-4.6,4.6-4.6
				c2.6,0,4.6,2.1,4.6,4.6L137,101.8L137,101.8z M155.6,101.8c0,2.6-2.1,4.6-4.6,4.6s-4.6-2.1-4.6-4.6V83.2c0-2.6,2.1-4.6,4.6-4.6
				s4.6,2.1,4.6,4.6V101.8z M174.2,101.8c0,2.6-2.1,4.6-4.6,4.6c-2.6,0-4.6-2.1-4.6-4.6V83.2c0-2.6,2.1-4.6,4.6-4.6
				c2.6,0,4.6,2.1,4.6,4.6V101.8L174.2,101.8z M239.1,101.8c-5.1,0-9.3-4.2-9.3-9.3s4.2-9.3,9.3-9.3s9.3,4.2,9.3,9.3
				S244.2,101.8,239.1,101.8z M267,101.8c-5.1,0-9.3-4.2-9.3-9.3s4.2-9.3,9.3-9.3c5.1,0,9.3,4.2,9.3,9.3S272.1,101.8,267,101.8z"/>
			<path class="st1" d="M285.5,129.6h-167c-10.2,0-18.6,8.3-18.6,18.6V176c0,10.2,8.3,18.6,18.6,18.6h167c10.2,0,18.6-8.3,18.6-18.6
				v-27.8C304.1,137.9,295.8,129.6,285.5,129.6z M137,171.4c0,2.6-2.1,4.6-4.6,4.6c-2.6,0-4.6-2.1-4.6-4.6v-18.6
				c0-2.6,2.1-4.6,4.6-4.6c2.6,0,4.6,2.1,4.6,4.6L137,171.4L137,171.4z M155.6,171.4c0,2.6-2.1,4.6-4.6,4.6s-4.6-2.1-4.6-4.6v-18.6
				c0-2.6,2.1-4.6,4.6-4.6s4.6,2.1,4.6,4.6V171.4z M174.2,171.4c0,2.6-2.1,4.6-4.6,4.6c-2.6,0-4.6-2.1-4.6-4.6v-18.6
				c0-2.6,2.1-4.6,4.6-4.6c2.6,0,4.6,2.1,4.6,4.6V171.4L174.2,171.4z M239.1,171.4c-5.1,0-9.3-4.2-9.3-9.3c0-5.1,4.2-9.3,9.3-9.3
				s9.3,4.2,9.3,9.3C248.4,167.2,244.2,171.4,239.1,171.4z M267,171.4c-5.1,0-9.3-4.2-9.3-9.3c0-5.1,4.2-9.3,9.3-9.3
				c5.1,0,9.3,4.2,9.3,9.3C276.2,167.2,272.1,171.4,267,171.4z"/>
			<path class="st1" d="M285.5,199.2h-167c-10.2,0-18.6,8.3-18.6,18.6v27.8c0,10.2,8.3,18.6,18.6,18.6h167
				c10.2,0,18.6-8.3,18.6-18.6v-27.8C304.1,207.5,295.8,199.2,285.5,199.2z M137,241c0,2.6-2.1,4.6-4.6,4.6c-2.6,0-4.6-2.1-4.6-4.6
				v-18.6c0-2.6,2.1-4.6,4.6-4.6c2.6,0,4.6,2.1,4.6,4.6L137,241L137,241z M155.6,241c0,2.6-2.1,4.6-4.6,4.6s-4.6-2.1-4.6-4.6v-18.6
				c0-2.6,2.1-4.6,4.6-4.6s4.6,2.1,4.6,4.6V241z M174.2,241c0,2.6-2.1,4.6-4.6,4.6c-2.6,0-4.6-2.1-4.6-4.6v-18.6
				c0-2.6,2.1-4.6,4.6-4.6c2.6,0,4.6,2.1,4.6,4.6V241L174.2,241z M239.1,241c-5.1,0-9.3-4.2-9.3-9.3s4.2-9.3,9.3-9.3
				s9.3,4.2,9.3,9.3S244.2,241,239.1,241z M267,241c-5.1,0-9.3-4.2-9.3-9.3s4.2-9.3,9.3-9.3c5.1,0,9.3,4.2,9.3,9.3
				S272.1,241,267,241z"/>
		</g>
	</g>
</g>
</svg>
