<svg height="480pt" viewBox="0 0 480 480" width="480pt" xmlns="http://www.w3.org/2000/svg"><path d="m448 480v-16l-32-32v-32l-32-32h-24l-32-32h-24l-16 16h-24l-32 32v96" fill="#f8cf6a"/><path d="m448 480v-16l-32-32v-32l-32-32h-24l-32-32h-24l-16 16h-24l-32 32v96" fill="#eebc5a"/><path d="m432 480-32-32v-32l-32-32h-24l-32-32h-24l-16 16h-24l-16 16v96zm0 0" fill="#f8cf6a"/><path d="m272 480v-16l-16-16v-40l-24-24h-16l-24-24h-24l-24-24h-32l-32 32v32l-16 16h-24l-40 40v24" fill="#eebc5a"/><path d="m24 432-24 24v24h240l-16-16v-40l-24-24h-16l-24-24h-24l-24-24h-16l-16 16v32l-16 16h-16l-16 16zm0 0" fill="#f8cf6a"/><g fill="#eebc5a"><path d="m184 328-16-24 24-24 16 16-8 32zm0 0"/><path d="m232 232h24l16 24-16 24h-16l-24-32zm0 0"/><path d="m40 336-16-24h-16l-8 16v24l32 8zm0 0"/><path d="m464 32c-17.671875 0-32-14.328125-32-32 0 17.671875-14.328125 32-32 32 17.671875 0 32 14.328125 32 32 0-17.671875 14.328125-32 32-32zm0 0"/><path d="m400 80c-17.671875 0-32-14.328125-32-32 0 17.671875-14.328125 32-32 32 17.671875 0 32 14.328125 32 32 0-17.671875 14.328125-32 32-32zm0 0"/></g><path d="m48 152h-24c-13.257812 0-24 10.742188-24 24s10.742188 24 24 24h24" fill="#bc8f6f"/><path d="m1.472656 184c3.304688 9.304688 12.09375 16 22.527344 16h24v-32h-24c-10.433594 0-19.222656 6.695312-22.527344 16zm0 0" fill="#cb9e78"/><path d="m112 216v136l-1.136719-1.136719c-30.007812-30.007812-46.863281-70.703125-46.863281-113.136719v-21.726562" fill="#656665"/><path d="m64 237.726562c0 34.730469 11.449219 68.195313 32 95.679688v-101.40625h-32zm0 0" fill="#999"/><path d="m112 136v-136l-1.136719 1.136719c-30.007812 30.007812-46.863281 70.703125-46.863281 113.136719v21.726562" fill="#656665"/><path d="m64 114.273438v21.726562h32v-117.40625c-20.550781 27.496094-32 60.949219-32 95.679688zm0 0" fill="#999"/><path d="m48 136h80v80h-80zm0 0" fill="#656665"/><path d="m48 152h56v64h-56zm0 0" fill="#999"/><path d="m432 216h32c8.839844 0 16-7.160156 16-16v-48c0-8.839844-7.160156-16-16-16h-32c-8.839844 0-16 7.160156-16 16v48c0 8.839844 7.160156 16 16 16zm0 0" fill="#656665"/><path d="m416 152v48c0 8.839844 7.160156 16 16 16h32v-64zm0 0" fill="#999"/><path d="m416 152h-288v48h288" fill="#bc8f6f"/><path d="m392 168h-264v32h264" fill="#cb9e78"/><path d="m218.34375 461.65625-13.65625-13.65625h-12.6875c-2.128906 0-4.160156-.839844-5.65625-2.34375l-16-16c-1.503906-1.496094-2.34375-3.535156-2.34375-5.65625v-12.6875l-11.3125-11.3125h-28.6875v-16h32c2.128906 0 4.160156.839844 5.65625 2.34375l16 16c1.503906 1.496094 2.34375 3.535156 2.34375 5.65625v12.6875l11.3125 11.3125h12.6875c2.128906 0 4.160156.839844 5.65625 2.34375l16 16zm0 0" fill="#eebc5a"/><path d="m394.34375 477.65625-13.65625-13.65625h-12.6875c-2.128906 0-4.160156-.839844-5.65625-2.34375l-16-16c-1.503906-1.496094-2.34375-3.535156-2.34375-5.65625v-12.6875l-11.3125-11.3125h-28.6875v-16h32c2.128906 0 4.160156.839844 5.65625 2.34375l16 16c1.503906 1.496094 2.34375 3.535156 2.34375 5.65625v12.6875l11.3125 11.3125h12.6875c2.128906 0 4.160156.839844 5.65625 2.34375l16 16zm0 0" fill="#eebc5a"/><path d="m69.65625 477.65625-11.3125-11.3125 16-16c1.496094-1.503906 3.527344-2.34375 5.65625-2.34375h12.6875l13.65625-13.65625c1.496094-1.503906 3.527344-2.34375 5.65625-2.34375h16v16h-12.6875l-13.65625 13.65625c-1.496094 1.503906-3.527344 2.34375-5.65625 2.34375h-12.6875zm0 0" fill="#eebc5a"/></svg>