<svg xmlns="http://www.w3.org/2000/svg" viewBox="0 0 1066.5 921.89"><defs><style>.cls-1,.cls-3{fill:#4a3b32;}.cls-2{fill:#624e42;}.cls-3{stroke:#4a3b32;}.cls-15,.cls-16,.cls-17,.cls-3,.cls-6,.cls-7{stroke-miterlimit:10;}.cls-4{fill:#a56151;}.cls-5{fill:#e7c79b;}.cls-6{stroke:#000;}.cls-16,.cls-17,.cls-7{fill:none;}.cls-7{stroke:#1a1a1a;}.cls-15,.cls-16,.cls-17,.cls-7{stroke-width:2px;}.cls-8{fill:#815a39;}.cls-9{fill:#412d1d;}.cls-10{fill:#61442b;}.cls-11{fill:#6b2c23;}.cls-12{fill:#f1b83f;}.cls-13{fill:#113446;}.cls-14{fill:#3d1402;}.cls-15{fill:#fff;}.cls-15,.cls-16{stroke:#cbcbcb;}.cls-17{stroke:#d8b993;}.cls-18{fill:#c39349;}.cls-19{fill:#010103;}.cls-20{fill:#e2dbd6;}.cls-21{fill:#b48943;}</style></defs><title>Fichier 7</title><g id="Calque_2" data-name="Calque 2"><g id="Calque_1-2" data-name="Calque 1"><path class="cls-1" d="M567.42,363.62c-1.8-2-3.66-3.9-5.39-5.94-8.8-10.36-17.86-20.49-27.37-30.21-1.06-1.08-2-2.37-3.48-2.93-1.44-2.56-3.65-4.45-5.77-6.37Q509,303.26,492.51,288.5c-4-3.57-7.87-7.32-12.55-10.05-2.73-3.52-6.59-5.72-10-8.37-14-10.67-28.43-20.61-43.23-30.07a23.5,23.5,0,0,1-5.47-4.08q11.1-12.45,22.2-24.92,22.15-25,44.31-49.94,20.44-23,40.9-46,19.27-21.75,38.47-43.57c2.39-2.72,5.17-5.18,6.59-8.66,4.93,6.61,10,13.13,14.79,19.83a356.82,356.82,0,0,0,89.68,87.54,178.55,178.55,0,0,0,19.5,12.11l20.24,11.94-15.6,17.67q-16.74,19-33.5,37.93-15.43,17.44-30.92,34.84c-7.12,8-14.19,16.12-21.32,24.15q-15.46,17.42-31,34.79C579.57,350.31,573.48,357,567.42,363.62Z"/><path class="cls-2" d="M623.24,431.47a33.24,33.24,0,0,1-18.82-9.14c-2.48-2.39-5-4.71-7.73-6.89-4.77-3.88-5.72-8.87-4.4-14.5a29,29,0,0,1,6.79-13.16c3.23-3.55,6.37-7.17,9.51-10.8a20.27,20.27,0,0,0,1.57-2.37,6.42,6.42,0,0,0,3.16-2.41c6.58-7.5,13.12-15,19.71-22.51,3.68-4.18,7.45-8.28,11.13-12.45,5-5.61,9.81-11.3,14.79-16.89,9.7-10.89,19.59-21.61,29.15-32.63,5.41-6.23,10.82-12.45,16.33-18.59,8.32-9.29,16.49-18.72,24.67-28.13,1.75-2,3.54-4.08,4.13-6.83,1.8.14,2.75-1.12,3.78-2.27,3.06-3.45,6.11-6.91,9.2-10.34A28.81,28.81,0,0,1,757,214c6.09-2.45,11.6-1.86,16.53,2.77,3.08,2.9,6.39,5.54,9.47,8.44,4.72,4.44,8.2,9.63,9,16.26-3.2.45-4.79,3.05-6.65,5.16-7.36,8.33-14.53,16.82-21.91,25.13-10.05,11.32-20.29,22.47-30.34,33.79-8.77,9.89-17.37,19.93-26.25,29.73-11.84,13.06-23.18,26.56-35,39.63-14.28,15.75-28.23,31.81-42.18,47.87C627.31,425.46,624.14,427.66,623.24,431.47Z"/><path class="cls-2" d="M409.69,196.73c-1.42.28-2.27,1.33-3.16,2.33-2.79,3.15-5.55,6.34-8.4,9.44a29.5,29.5,0,0,1-9.55,7.24,19.84,19.84,0,0,1-8.88,2,10.13,10.13,0,0,1-6.86-2.47c-4.42-4-9-7.72-13.22-11.9a21.74,21.74,0,0,1-6.68-12.41c2.81-3.14,5.64-6.26,8.44-9.42,4.7-5.3,9.36-10.66,14.09-15.94,6-6.72,12.1-13.35,18.09-20.09s12.1-13.86,18.23-20.72c5.87-6.58,11.91-13,17.78-19.59,8.3-9.3,16.47-18.7,24.76-28,9.82-11,19.73-22,29.56-33q18.18-20.37,36.3-40.82a11.25,11.25,0,0,0,1.12-2l0,.06a2.66,2.66,0,0,0,2.33.16,25.09,25.09,0,0,1,13.1,6.44c2.87,2.49,5.53,5.24,8.55,7.53a15.65,15.65,0,0,1,6.61,11.47,30.81,30.81,0,0,1-8.81,18.72c-2.6,2.77-5,5.71-7.61,8.5a5.15,5.15,0,0,0-1.51,3,4.65,4.65,0,0,0-1.53.75q-12.51,13.91-24.94,27.88c-4.72,5.3-9.35,10.68-14.08,16-6,6.72-12.12,13.35-18.12,20.08-4.73,5.29-9.3,10.72-14,16-5.89,6.57-12,13-17.82,19.57-9.82,11-19.54,22.15-29.31,33.23A23.9,23.9,0,0,0,409.69,196.73Z"/><path class="cls-3" d="M521.31,1.39a11.25,11.25,0,0,1-1.12,2q-18.14,20.43-36.3,40.82c-9.83,11-19.74,22-29.56,33-8.29,9.3-16.46,18.7-24.76,28-5.87,6.58-11.91,13-17.78,19.59-6.13,6.86-12.12,13.85-18.23,20.72s-12.09,13.37-18.09,20.09c-4.73,5.28-9.39,10.64-14.09,15.94-2.8,3.16-5.63,6.28-8.44,9.42-1.88-3.52-1.93-7.41-1.89-11.22a61.35,61.35,0,0,1,5.12-23.48c4.11-9.69,10.08-18.06,17-25.86q46.47-52,92.82-104.16A83.28,83.28,0,0,1,493.52,5.59c4.73-2.19,9.78-3.35,14.74-4.81,1.71-.07,3.42-.17,5.13-.21C516.07.49,518.76.28,521.31,1.39Z"/><path class="cls-3" d="M623.24,431.47c.9-3.81,4.07-6,6.41-8.71,14-16.06,27.9-32.12,42.18-47.87,11.84-13.07,23.18-26.57,35-39.63,8.88-9.8,17.48-19.84,26.25-29.73,10-11.32,20.29-22.47,30.34-33.79,7.38-8.31,14.55-16.8,21.91-25.13,1.86-2.11,3.45-4.71,6.65-5.16,2.08,6.21,1.56,12.51.54,18.79-1.94,11.85-7.27,22.22-14.3,31.79-5,6.83-11,12.84-16.52,19.25-1.37,1.6-2.66,3.28-4,4.92-5.67,6.26-11.4,12.46-17,18.79q-31,35-61.89,70c-8.78,9.94-19,18-31.38,22.94C639.68,431,631.68,432.82,623.24,431.47Z"/><path class="cls-2" d="M567.42,363.62c6.06-6.67,12.15-13.31,18.16-20q15.52-17.37,31-34.79c7.13-8,14.2-16.11,21.32-24.15q15.45-17.43,30.92-34.84,16.77-18.94,33.5-37.93l15.6-17.67a13.94,13.94,0,0,1,4.76-1.92,8.55,8.55,0,0,1,9.49,10.9,12.36,12.36,0,0,1-2.95,4.86c-3.21,3.55-6.33,7.19-9.58,10.71-1,1.11-.52,2.09-.21,3.17-2-.59-3.23.7-4.4,2q-10.66,12-21.32,24.09-10.28,11.63-20.5,23.28c-5.69,6.47-11.36,13-17.08,19.41-9.16,10.31-18.37,20.57-27.53,30.88-4.33,4.86-8.58,9.79-12.91,14.66q-9.75,10.94-19.58,21.8a3.08,3.08,0,0,0-.92,3.09,3.29,3.29,0,0,0-3,1.31c-2.63,3-5.32,6-8,9a39.8,39.8,0,0,1-3.18,3.31A8.14,8.14,0,0,1,571.4,376a8.39,8.39,0,0,1-4.81-8.45A24.79,24.79,0,0,1,567.42,363.62Z"/><path class="cls-3" d="M595.17,361.17a3.08,3.08,0,0,1,.92-3.09q9.85-10.84,19.58-21.8c4.33-4.87,8.58-9.8,12.91-14.66,9.16-10.31,18.37-20.57,27.53-30.88,5.72-6.44,11.39-12.94,17.08-19.41q10.24-11.64,20.5-23.28Q704.34,236,715,224c1.17-1.32,2.36-2.61,4.4-2a102.3,102.3,0,0,1,13.82,12.23c-.59,2.75-2.38,4.81-4.13,6.83-8.18,9.41-16.35,18.84-24.67,28.13-5.51,6.14-10.92,12.36-16.33,18.59-9.56,11-19.45,21.74-29.15,32.63-5,5.59-9.84,11.28-14.79,16.89-3.68,4.17-7.45,8.27-11.13,12.45-6.59,7.48-13.13,15-19.71,22.51a6.42,6.42,0,0,1-3.16,2.41Z"/><path class="cls-4" d="M523.62,1.61a2.66,2.66,0,0,1-2.33-.16A2.09,2.09,0,0,1,523.62,1.61Z"/><path class="cls-2" d="M306.76,567.42c-3.51,4.27-7.12,8.47-10.52,12.84a9.82,9.82,0,0,1-8.77,4.14c-19.91-.33-39.83-.37-59.75-.45-2.86,0-5.75-.33-8.58.4l.06.09a15.93,15.93,0,0,1,3.41-4.57c12.4-13,24.32-26.48,37.18-39,1.35-1.32,3-2.48,3.46-4.48q22.26-23.8,44.52-47.62,46-49.37,92-98.76,9.44-10.14,18.86-20.29c.78-.84,1.54-1.71,2.3-2.58.93-1.08.72-2-.25-3s-2.16-2.18-3.24-3.28a36.67,36.67,0,0,1-6.1-8.37,15.74,15.74,0,0,1-2.07-7.14,5.67,5.67,0,0,1,5.49-6.2,18.83,18.83,0,0,1,10.52,2.51c1.7.88,3.17,2.21,5.32,2.56,1.76-1.89,1.81-4.48,2.41-6.84a105.16,105.16,0,0,1,15.87-35,62.76,62.76,0,0,1,31-23.86c4.68,2.73,8.55,6.48,12.55,10.05q16.53,14.75,32.9,29.67c2.12,1.92,4.33,3.81,5.77,6.37l-1.84,6.07a58.88,58.88,0,0,1-14.33,24,93,93,0,0,1-21.95,16.71,153.06,153.06,0,0,1-16.68,7.9c-1.38.56-3,.69-4.07,2.29,1.26,1.83,2.61,3.66,3.81,5.58a19,19,0,0,1,3.15,9.16,5.73,5.73,0,0,1-5.06,6,13.48,13.48,0,0,1-5.7-.49,34.81,34.81,0,0,1-11.69-6.08c-1.21-1-2.37-2-3.61-2.87a1.71,1.71,0,0,0-2.53.33c-1.12,1.32-2.27,2.61-3.37,3.94q-29.21,35.32-58.4,70.67l-78.61,95.1C309.08,564.35,307.94,565.9,306.76,567.42Z"/><path class="cls-2" d="M219.14,584.35A205,205,0,0,0,248.92,579c43.15-11.07,65.3-31.84,68.48-28.06s-19.28,26.56-67.61,85.13c-1.6,1.93-1.82,2.24-7.32,8.88q-25.32,30.6-50.65,61.2-24.6,29.69-49.2,59.39c-1.45,1.75-3.33,3.22-4,5.55-3.21,2.8-5.61,6.3-8.3,9.54q-27.6,33.3-55.14,66.66A76.19,76.19,0,0,1,64.74,858a68.71,68.71,0,0,1-6.5,4.78c-12.19,7.67-24.58,8.12-37,.66A55.69,55.69,0,0,1,6.07,850.29c-7-8.89-7.73-18.49-3.22-28.71,3.63-8.21,9-15.21,15-21.73q15.66-17,31.43-33.79,31.46-33.76,62.91-67.52l2.83-3C133.23,675.78,164,642.84,219.14,584.35Z"/><path class="cls-2" d="M545.79,67.72c1.72-.19,2.55-1.56,3.55-2.68,2.56-2.83,5.1-5.69,7.65-8.53.76-.85,1.48-1.77,2.31-2.54A8.76,8.76,0,0,1,574,60a18.46,18.46,0,0,1-.33,2.84c-1.42,3.48-4.2,5.94-6.59,8.66Q547.95,93.32,528.63,115q-20.43,23-40.9,46Q465.56,186,443.42,211q-11.09,12.48-22.2,24.92a35.81,35.81,0,0,1-4,.35c-3.68-.11-6.7-1.5-8.3-5a8.28,8.28,0,0,1,1.41-9.55c2.78-3.14,5.59-6.25,8.32-9.43,1.22-1.43,2.8-2.63,3.32-4.57,4.36-2.66,7.12-7,10.46-10.58,9.85-10.7,19.3-21.76,28.91-32.67Q472,152.4,482.63,140.37c5.83-6.6,11.61-13.24,17.48-19.8s12.11-13.31,18.12-20c7-7.84,14.09-15.65,20.93-23.65C541.6,74.07,544.94,71.76,545.79,67.72Z"/><path class="cls-3" d="M545.79,67.72c-.85,4-4.19,6.35-6.63,9.2-6.84,8-13.9,15.81-20.93,23.65-6,6.69-12.12,13.29-18.12,20s-11.65,13.2-17.48,19.8q-10.63,12-21.28,24.09c-9.61,10.91-19.06,22-28.91,32.67-3.34,3.63-6.1,7.92-10.46,10.58l-12.28-11a23.63,23.63,0,0,1,4.4-6c9.77-11.08,19.49-22.2,29.31-33.23,5.87-6.59,11.93-13,17.82-19.57,4.75-5.28,9.32-10.71,14-16,6-6.73,12.11-13.36,18.12-20.08,4.73-5.29,9.36-10.67,14.08-16q12.43-14,24.94-27.88a4.65,4.65,0,0,1,1.53-.75A87.9,87.9,0,0,1,545.79,67.72Z"/></g><g id="Calque_4" data-name="Calque 4"><path class="cls-5" d="M640.19,867.9c4.06,17.76,87.27,29.55,116-.4,3.93-4.07,13.14-15.45,25.75-15.32,7.72.14,13.14,4.48,14.9,5.56,10.17,6.91,37.54,2.44,111.68-46.21a254.13,254.13,0,0,1-43-5.29c-28.87-6.1-49.34-10.3-63-27.65-1.77-2.3-17.49-22.22-11.66-38.89,1.9-5.29,5.15-8.14,6.37-15.72a38.94,38.94,0,0,0-3.25-22.1,150.76,150.76,0,0,0,1.62-68.71c-4.33-20.33-11.92-34.15-20.32-49.46-10.44-19.11-18.44-34.16-35.51-44.59-7.19-4.34-27.24-16.67-37.27-9.08-11.25,8.54-2.58,36.18-1.76,38.49,10.3,31.44,33.74,32.39,46.35,58,9.35,19.11,4.6,39.44-4.88,80-9.76,41.61-16.67,70.21-40.39,93.92-3.79,3.8-23.31,22.36-49.33,49.47C642.22,860.86,639.37,864.11,640.19,867.9Z"/><path class="cls-5" d="M174.24,719.81c-18,22-51,61-55,84-1.76,18.29,4.46,30.89,20.18,38.21,10.7,5,16.67,0,39.3,0,17.89,0,19.24,3.12,48.11,7.18,45.4,6.51,44.18-.68,68.31,6.51,19.78,5.82,26.69,12.6,47.43,14.5a111.06,111.06,0,0,0,30.63-1.49c33.75-6,83.89-3.93,158.16-.82,119.94,5,151.38,24.94,157.89,12.47,21.41-41.33-316-267.93-341-316.59-1.35-2.71-8.54-18-18.43-18-6.91,0-11.93,7.32-15.72,12.6,0,0-2.85,4.07-69.8,82.4-2.16,2.58-5.15,5.83-8.67,5.56-11.25-.81-8.54-37.54-31.17-48.25A45.9,45.9,0,0,0,183.6,594c-8.95.4-11.79,3.25-24.94,7.18-19.92,6.1-21.82,2.3-29.68,7.18-8.94,5.69-7.72,11.52-18.43,28.06s-16.4,18.43-21.41,25.07a40.22,40.22,0,0,0-3.53,6.23c-6.5,13.55-6.94,53.86,3.63,55.08,1.36.13,3.38-2.49,21-22,8.54-9.49,13.73-8.41,17.11-8.14,6.24.68,4.75,12.87,13.69,19.24,13.28,9.63,37.68-2.44,38.9,1.22.27.68-.54,1.36-1.63,2.58s-2.57,2.84-3.79,4.2"/><g id="Calque_5" data-name="Calque 5"><path class="cls-6" d="M118.74,814.31c8,39,36.74,29.3,42,29a218.28,218.28,0,0,1,54,4c24.79,5.14,30.21,3.18,59,5,38.25,2.4,61.79,26.4,84,19,6-2,35-6,67-6,52,0,95,1,137,4,90.62,6.47,96,15,133,16,74,2,68-33,84-31,14.21,1.77,19,6,27,6,34.07,0,70.37-17.36,85-37,39.55-53.08-113-109.75-113-232,0-8-22.75-45.4-36-52-11.22-5.6-31.83-15.7-61-21-139.76-25.45-254.77,99.21-340,58-7.81-3.78-13.51-32.93-24-22-8.9,9.27-57,70-74,88-6.79,7.19-10.69,1.78-11,3-12.08,48.33-41,61-52,68-8.75,5.56-34.94,37.47-56,77C120.78,795.86,116.75,804.58,118.74,814.31Z"/></g><path class="cls-7" d="M762.57,747.83c0,57.73,8.67,104.49,19.38,104.49"/><path class="cls-7" d="M233.2,850.29c18.43-35.24,76.44-40.93,90-70.61"/><path class="cls-8" d="M1066.33,526.64a5.54,5.54,0,0,1-.08,2.83q-18.06,155.34-36.14,310.68c-.17,1.48.17,2.93-2.5,2.62q-124.12-14.58-248.27-29a3.57,3.57,0,0,1-.52-2.75c.06-1,.19-1.91.3-2.86q17.77-152.73,35.55-305.44c.21-1.78,0-3.71,1.34-5.22a3.34,3.34,0,0,1,1.8,0q41.28,3.8,82.37,9.16c54.54,7.21,109.27,12.81,163.87,19.49A4.76,4.76,0,0,1,1066.33,526.64Z"/><path class="cls-9" d="M816.1,497.58q-11.21,96.48-22.42,193L779.34,813.8a73.56,73.56,0,0,1-14.57-1.62c-.79-1.87-.4-3.79-.19-5.68.86-7.72,1.78-15.44,2.67-23.15Q783.63,642.53,800,501.72c.15-1.3.27-2.6.51-3.89s.71-2.17,2.11-2.27l13.5,1.6c.19.11.25.21.17.29A.28.28,0,0,1,816.1,497.58Z"/><path class="cls-10" d="M802.64,495.56c-1.5.69-1.28,2.13-1.43,3.39Q790.8,588.38,780.4,677.81L765.34,807.29l-.57,4.89c-4.16-.44-8.32-.92-12.48-1.3-1.29-.11-1.66-.66-1.38-1.85a18.09,18.09,0,0,0,.22-1.82q18-155.13,36-310.26c.28-2.48.77-3.46,3.54-2.92C794.63,494.79,798.66,495.07,802.64,495.56Z"/><path class="cls-11" d="M864.16,502.6l40.47,4.72c1,.14,2.07.3,3.11.42q77.85,9.07,155.72,18.15c1,.11,2.11-.23,2.87.75-1.13-.12-2.26-.22-3.39-.35L816.1,497.58a1.87,1.87,0,0,1,0-.42l19.94,2.13Z"/><path class="cls-10" d="M934.61,559.32c29,3.37,57.91,6.78,86.87,10,2.52.29,3.25,1.23,3.06,3.45-.07.79-.16,1.57-.25,2.35q-9.81,84.39-19.63,168.77c-.06.52-.11,1.05-.19,1.56-.56,3.53-.83,3.74-4.33,3.34l-173.2-20.15c-3.39-.39-3.39-.4-3-3.75Q834,638.58,844,552.25c.39-3.41.4-3.42,3.73-3Z"/><path class="cls-12" d="M842.64,814.68a3.77,3.77,0,0,1-2.73.21c-17.41-2-34.82-4.09-52.25-6-2.61-.29-3.33-1.12-3-3.76,1.9-15.32,3.62-30.66,5.5-46.83Z"/><path class="cls-12" d="M967.06,829.12l63.29-42.37a2.26,2.26,0,0,1,.2,2q-2.61,22.62-5.25,45.23c-.15,1.31,0,2.56-2.14,2.31-18.61-2.23-37.23-4.37-55.84-6.53Z"/><path class="cls-12" d="M814.2,551.65c.26-2.18.42-3.61.59-5q2.48-21.32,4.94-42.62c.17-1.49.38-2.38,2.31-2.15,18.35,2.2,36.72,4.31,55.08,6.46a8.74,8.74,0,0,1,1.17.43Z"/><path class="cls-12" d="M1051.58,583.41l-47-58.57c.22-.64.57-.61.91-.57q25.44,3.12,50.88,6.21c1.46.17,2.43.31,2.19,2.29-2,16.85-4,33.71-5.92,50.57Z"/><path class="cls-9" d="M932.42,567.5q39.78,4.63,79.57,9.2c2.49.28,3.11,1,2.81,3.52Q1005.53,659,996.47,737.8c-.28,2.43-.91,3.17-3.48,2.86q-79.43-9.35-158.87-18.54c-3.47-.4-3.47-.41-3.07-3.85q9.13-78.66,18.24-157.32c.29-2.55,1.11-3.05,3.57-2.76Q892.63,562.94,932.42,567.5Z"/><path class="cls-10" d="M830.67,808.33c-4.58-.53-9.16-1.07-13.74-1.58a3.2,3.2,0,0,1-2-1.15Q804.13,794.27,793.28,783a2.12,2.12,0,0,1-.8-1.82c.44-3.71.86-7.41,1.36-11.7,2.17,2.24,4,4.12,5.82,6a42.28,42.28,0,0,0,3.06,3.21c3.5,3,5.75,6.08,2.67,10.75-.84,1.28,2.15,4.56,3.87,4.48a1.52,1.52,0,0,0,.5-.15c4.77-2.1,8-.09,11.09,3.58s6.71,7,10.09,10.46Z"/><path class="cls-10" d="M791,785.74l20.59,20.68c-.37.9-1,.54-1.41.49-6.42-.73-12.82-1.53-19.24-2.19-1.7-.18-2.15-.72-1.91-2.45C789.8,797,790.34,791.76,791,785.74Z"/><path class="cls-10" d="M980,825.12l5.18-3.28c3.24-2,6.66-3.86,9.67-6.2,2.53-2,4.68-1.71,7.07-.18,1.89,1.22,3.63,1.64,5.67,0,1.19-.93,1.95-1.67,1.41-3.18-1.47-4.13.45-6.41,4-8.35,4-2.17,7.6-4.89,11.94-7.75-.51,4.42-.93,8.32-1.45,12.21-.11.83-1,1.13-1.68,1.55q-12.81,8.31-25.64,16.62a3.45,3.45,0,0,1-2.42.71c-4.5-.55-9-1.06-13.49-1.58Z"/><path class="cls-10" d="M1023.23,813.22c.7,1.59,0,2.93-.1,4.28-.31,3.9-1.12,7.76-1,11.71,0,1.48-.31,2.4-2.26,2.14-6.91-.92-13.85-1.66-21.62-2.56Z"/><path class="cls-10" d="M820.24,541.74c.48-4.11.91-7.48,1.24-10.85a3.68,3.68,0,0,1,1.87-2.93q13-8.34,25.9-16.76a3.15,3.15,0,0,1,2.18-.64c4.58.56,9.15,1.08,14.16,1.66-1.46,1.66-3.16,2.34-4.62,3.3-3.79,2.49-7.71,4.78-11.46,7.32-1.72,1.16-3.2,1.4-5,.22-.78-.53-1.79-.74-2.56-1.27-2.21-1.53-3.52.48-5.12,1.23-1.44.67-.92,2.06-.6,3,1.27,3.74-.23,5.78-3.53,7.58C828.59,535.87,824.76,538.76,820.24,541.74Z"/><path class="cls-10" d="M821.44,524.26c.64-5.51,1.32-11,1.9-16.54.16-1.51,1-1.29,2-1.17l21.74,2.53-25,15.6Z"/><path class="cls-10" d="M1047.85,572.65c-4.51-6-8.54-11.41-12.66-16.76-1.38-1.8,0-2.92.75-4.18,1.07-1.86,2.17-3.49.22-5.58-1.07-1.14-2-1.89-3.53-1.46-4.08,1.11-6.94-.18-9.28-3.86s-5.52-7.12-8.73-11.17c4.88.57,9.15,1.06,13.41,1.57.79.09,1.13.77,1.55,1.31q9.53,12.27,19.06,24.55a3.29,3.29,0,0,1,.73,2.64C1048.86,563.77,1048.41,567.83,1047.85,572.65Z"/><path class="cls-10" d="M1033,531.24c6.66.78,12.62,1.5,18.59,2.14,1.27.14,1.85.47,1.67,1.91-.8,6.38-1.51,12.77-2.34,19.9Z"/><path class="cls-12" d="M959,637.2c-2.92,5.92-5.58,11.2-8.11,16.53a2.46,2.46,0,0,1-3,1.63c-1.54-.2-2.42-.56-2.86-2.3-2.91-11.65-6-23.27-8.93-34.92-.2-.81-1.33-2.33.32-2.49,1.36-.13,3.47-.72,4.08,1.66,1.21,4.73,2.45,9.44,3.69,14.16,1.4,5.38,2.81,10.77,4.39,16.8,2.18-4.66,4.1-8.76,6-12.86,2.35-5,4.67-10.11,7-15.16.69-1.48,3.88-2.14,5.07-1.11.44.38.28.78.14,1.17a6.29,6.29,0,0,1-.64,1.42c-4.07,6-4.22,12.3-1.58,19,1.21,3,1.76,6.36,2.75,10,2.06-4.33,3.94-8.22,5.78-12.13q3.35-7.1,6.66-14.19c1.85-3.95,1.86-3.94,6.46-2.95L980.69,633c-3.65,7.61-7.32,15.22-10.92,22.86-.59,1.24-1.14,2-2.71,1.71s-2.72-.33-3.19-2.27C962.44,649.49,960.77,643.73,959,637.2Z"/><path class="cls-12" d="M927.18,603.72c23.64,2.75,47.29,5.54,70.94,8.19,2.38.27,2.67,1.23,2.24,3.18-.2.92-.48,1.45-1.51,1.26-.52-.1-1-.12-1.56-.18L855.93,599.72c-1.4-.16-2.95.14-2.67-2.35.26-2.25,1.34-2.12,3-1.93q27.66,3.27,55.34,6.46Z"/><path class="cls-12" d="M919.2,676.07c-10.39-1.21-20.77-2.46-31.17-3.59-1.94-.2-2.94-.69-2.32-2.82a7.57,7.57,0,0,0,.24-2.07c0-1.43.55-1.94,2.08-1.76q32.07,3.79,64.15,7.47c1.49.17,2,.8,1.74,2.2a10.15,10.15,0,0,0-.21,1.82c0,2.12-.89,2.74-3.09,2.46C940.16,678.44,929.67,677.29,919.2,676.07Z"/><path class="cls-12" d="M926.83,652.64c-4.77,0-4.73,0-5.75-4.26-.54-2.28-.16-5.35-1.8-6.62s-4.48-.89-6.81-1.19c-2.51-.32-5-.48-7.52-.92a2.17,2.17,0,0,0-2.77,1.58c-.63,1.52-1.42,3-2.15,4.46-2.13,4.28-2.13,4.28-7.12,2.95l10-18.33c2.92-5.35,5.89-10.67,8.72-16.07.72-1.37,1.62-1.54,3-1.31s2.31.17,2.72,1.78c3.11,12.32,6.3,24.62,9.45,36.92A4.23,4.23,0,0,1,926.83,652.64Z"/><path class="cls-12" d="M865.6,624.49c.58-5,1.24-10,1.72-15.08.16-1.72.91-1.9,2.38-1.72s2.15.46,1.93,2.2c-1.17,9.35-2.22,18.71-3.3,28.07-.41,3.57-.17,3.92,3.36,4.38,5,.64,10,1.26,15.07,1.77,1.4.15,2.08.46,1.81,2-.22,1.28-.2,2.33-2.1,2.06-5.7-.79-11.44-1.3-17.14-2.1-4.27-.6-5.88-2.82-5.42-7.05C864.45,634.19,865,629.34,865.6,624.49Z"/><path class="cls-9" d="M913.92,619.17c1.5,5.84,2.82,11.05,4.17,16.25.32,1.23.12,1.73-1.32,1.53-3.27-.46-6.56-.8-9.84-1.16-1-.12-1.71-.35-1-1.6C908.47,629.39,911,624.58,913.92,619.17Z"/><path class="cls-13" d="M907.13,505.93l-8.62,72.74c-2.54-1.6-4.32-3.8-6.39-5.66q-5.5-4.95-10.79-10.15a2.13,2.13,0,0,0-3.08-.38c-5.91,3.44-11.86,6.8-17.81,10.18-.66.38-1.34.7-2.28,1.19l3.59-30.24c1.27-.39,2.17.42,3.09,1,2,1.3,4,2.43,6,3.65,1.22.75,2,.47,2.17-1,.05-.35.1-.69.14-1,1.58-13.5,3.27-27,4.76-40.51.14-1.27,0-2.67,1.46-3.4,8.69,1,17.36,2,26,3.07C906,505.48,906.69,505.39,907.13,505.93Z"/><path class="cls-14" d="M879.05,502.55q-2.65,22.43-5.32,44.84c-.42,3.47-.4,3.44-3.35,1.57s-5.76-3.57-8.63-5.35c-2-1.76-4.46-2.91-6.58-4.5-1.15-.86-2-.23-2.88.09-6.35,2.17-12.69,4.38-19.4,6.71l5.71-48.16a2.72,2.72,0,0,1,1.78-.05l37,4.38C877.93,502.15,878.57,502.08,879.05,502.55Z"/><g id="Calque_6" data-name="Calque 6"><path class="cls-15" d="M434.24,739.81s-40,28.17-69,157c-.64,2.85-1.57,7.59,1,11,6.44,8.54,24.95-4.37,51,0,19.31,3.23,19.21,12,36,13,19.11,1.12,22.73-10,44-14,28.43-5.31,32.1,12.73,64,10,27.7-2.38,35.15-16.86,56-11,14,3.91,20,13.05,28,10,3.3-1.27,10.09-5.84,12-29,3.42-41.41,8.8-106.69-41-149C561.94,691.66,481.61,706.46,434.24,739.81Z"/><path class="cls-16" d="M613.24,773.81c0,63.56-3.58,115-8,115"/><path class="cls-16" d="M523.24,779.81c0,53.61-4.92,97-11,97"/><path class="cls-16" d="M461.24,776.81c0,61.9-12.07,112-27,112"/></g></g><g id="Calque_2-2" data-name="Calque 2"><g id="Travail_4" data-name="Travail 4"><path class="cls-5" d="M350.16,566c-7.73,1.09-15.45-12.74-22.23-24.66-5.55-9.9-12.6-22.5-12.6-39.71,0-8.27,0-20.33,8.4-30.77,8.68-10.57,24.94-17.75,34.29-12.47,6.64,3.66,6.1,11.39,10.3,11.93,6.91.81,11.93-19.52,22.9-36.18,13.15-19.79,32.8-27.25,61.4-37.95,22.09-8.4,39.57-10.71,73.45-15.05,56.25-7.18,84.44-10.84,102.46.55,13.82,8.81,16.94,18.7,43.37,35.5,7.45,4.75,13.55,8,20.46,15.73,5,5.55,16,17.61,16.27,35.5,0,3.39.4,18.71-10.85,30.77-8.94,9.62-23.17,15-36.18,13.28C634.49,508.62,634,476,605,469.05c-14.1-3.39-27.78.95-45.81,6.64-22.36,7.05-31.17,15.86-44,11.39-11.39-3.93-12.34-13.56-21.69-13.83-10.71-.27-12.06,12.33-27.1,18.7-17.76,7.46-28.19-5.42-40.93,3-9.49,6.23-5,14.09-18.71,27.1-2.71,2.58-14.9,14.23-24.12,10.84-5.15-1.89-5.28-7-8.4-7.18C365.47,525.16,362.49,564.33,350.16,566Z"/><path class="cls-17" d="M180.21,713.4c24.94-14.63,48-39,51-68.84"/><path class="cls-17" d="M330.24,547.66c1.76,8.67,13.69,16.94,22.63,19"/><path class="cls-17" d="M566.32,415.25c13.42,6,42.69,45.53,30.36,46.48"/><path class="cls-17" d="M470,426c-12.88.82-32.53,55,5.82,49.47"/><path class="cls-18" d="M374.15,524.48c-15.45,10.57-6.37,20.06-25.89,43.91-14.63,18-24.39,20.33-34.29,39.71-6.37,12.6-9.35,25.21-7.86,25.89s8.14-11.79,10.3-10.85-6,14.1-1.22,27.79c2,5.82,4.88,7.18,5.43,13.28s-1.9,9.35-3.66,15.72c-2,7.45-.95,13.69,1.22,26.56,2.84,16.81,6.37,18.43,6,28.87-.27,9.89-3.52,12.2-4.88,19.92-4.2,25.21,21.41,54.89,31.31,51.77,7-2.17,4.47-20.19,11.38-21.68,8.81-1.9,20.19,24.53,26.56,22.23,3.12-1.09,1.22-7.87,4.21-9.63,9.89-5.82,56,54.89,58.41,53,1.62-1.22-17.21-27.1-13.83-30.08,4.2-3.8,40.25,33.2,47,27.64,4.07-3.38-6-19.92-2.44-22.22,6.37-4.34,41.34,48.79,67.49,41.6,5.15-1.49,5-3.79,11.39-5.42,15.72-3.93,27,7.86,41.6,13.28,23.31,8.68,49.88-.67,63.29-9.08C697,847.17,700.09,805.29,709,807.05c7.19,1.36,8.68,29,9.63,28.87s-5.83-21,3.65-33.75A65.36,65.36,0,0,0,729.5,792a61.78,61.78,0,0,0,4.74-12.6c3.93-11.93,3-12.47,4.88-14.51,4.61-4.87,9.76-1.76,16.26-6.64,5.29-4.06,7-10.16,7.86-12.6,3.53-12.2-2.71-22.63,0-24.12,2.44-1.36,7.73,6.5,9.63,5.42,3.93-2.17-11.66-36.32-8.41-38,1.77-1,7.46,9.49,10.85,8.4,4.87-1.49,1.62-25.48,0-34.29C766.23,614.74,715,611,706.05,566.77c-2-10.44,1.49-15.59,1.36-24.4a73.42,73.42,0,0,0-1.36-9.35c-2.71-12.47-12.06-28.46-27.37-37-12.88-7.32-19.93-3.52-31-13.55-3.93-3.53-4.2-5.15-8.94-8.81a58.57,58.57,0,0,0-23.59-10.84c-13.82-2.85-14.5,3.52-30.08,1.08-9.08-1.35-12.47-3.93-20.47-2.71-3.25.54-8.94,1.49-14,5.69-7.32,6.24-6.1,14.1-12.6,16.13-3.39,1.08-6.51.14-9.22-.81-6.91-2.17-7.45-5.83-16-10.71-3.79-2.17-7.59-4.34-13-4.61-1.22-.13-5.28-.27-12.33,2.44-9.08,3.53-10,6.78-18.3,11.25a60,60,0,0,1-19.78,6.23c-9.22,1.5-10.58-.4-21.55,1.5-9.35,1.62-12.88,3.79-15.05,5.42a27.78,27.78,0,0,0-7.45,9.35C398.41,515.27,385.4,516.76,374.15,524.48Z"/><path class="cls-18" d="M283.62,483.28c20.87-15.18,2.57-50.69,10.43-96.36,8.4-48.25,44.32-99.61,92.16-111.81a102.43,102.43,0,0,1,48.79,0,203.1,203.1,0,0,1,68-15,181.16,181.16,0,0,1,60.85,6.64c41.61,12.2,95.42,45.67,95.14,77.66,0,6-2,18.16,2.44,35a80.52,80.52,0,0,0,6.64,17.49c11.12,20.6,38.22,40.79,56.65,34.28,16.4-5.69,21-30.76,24.67-29.54,4.34,1.49-7,33.88,2.44,39.71,8.54,5.28,27.78-14.64,32-10.84,5.7,5.28-26.29,46.21-18.7,53.66,2.71,2.58,9.08-.54,10.17,1.77,2.3,4.47-19.79,16.94-17.49,23.44,1.9,5.42,19.11.95,21,6,2,5.28-14.1,21.54-33.75,24.12-28.73,3.79-59.9-22.77-57.19-38.49,1.09-6.64,7.18-6.1,11.66-15.18,8.26-17.08-2.44-41.74-17.22-53.94-2.57-2-14.09-11.65-22.49-8-2.71,1.21-3.12,2.84-6.1,3.65-8.27,2.17-17.08-7.86-18-6.77s5.7,8,5.29,8.4c-.68.68-15.72-16.94-37.27-22.9-.81-.27-9.08-2.44-10.17-.41-1.22,2.44,9.36,8.4,8.14,11.79-1.36,3.66-15.18,1.63-25.35.27-8.67-1.22-16.12-2.3-25.34-6-10-3.93-8.81-5.69-14.5-6.78-12.74-2.57-24.94,4.88-30.9,8.41-7.32,4.33-6.51,5.69-13.42,9.21-5.42,2.71-16.8,8.54-23.85,4.07-5-3.12-3.93-8.81-8-10s-8.81,3.39-16.8,11.65c-18.43,18.71-23.18,23.86-24.94,22.91-3-1.63,4.61-20.74,3.25-21.28s-5.69,16-16.12,18c-4.88.95-7.19-2.16-10-.4-6.92,4.06.81,24.93-4.48,27.24-3.25,1.49-8.81-5.42-10-4.47-1.77,1.49,11.24,15.72,8.8,18.83s-22.49-3.79-27.24-17.21c-1.35-3.93-.4-7.86-3.66-10.84s-8.26-3-11.24-2.85a28.24,28.24,0,0,0-15.59,5.83,39.07,39.07,0,0,0-13.69,19.52c-9.89,29.54,18.3,63.69,11.66,68.71-3.26,2.44-9.49-5.83-25.75-11.25-10.17-3.39-25.75-9.08-38.9-2.44-2.3,1.22-5.28,3.93-11.38,9.62-18.3,17.22-19.79,22.23-25.21,22.5-11.38.68-25.21-20.46-20.6-28.19,5.15-8.54,32.93,2.58,36.32-4.74,3.25-6.91-19.38-21.82-16.4-27,3.12-5.56,32.26,6.1,34.15,2,1.22-2.84-12.87-9.08-12.06-15.58C251.36,489.92,271.42,492.23,283.62,483.28Z"/><path class="cls-18" d="M436.08,221.85c-2.84-1.08-8.94,5.15-11.25,11.79-3.93,11.79,4.48,23,5.83,24.67-1.35-.41-3.52-1.09-6-2-6.51-2.3-7.45-3-10-3.25a19.8,19.8,0,0,0-8.81,1.76c-4.47,1.63-9.21,4.61-8.81,5.56s4.75-.95,10.71.54a27.2,27.2,0,0,1,7.18,3.39c7.46,4.47,8.68,7.18,14.64,10,3.79,1.76,5.55,2.57,7.45,2.44,9.35-.95,10.17-19.25,21.28-21.82,4.74-1.08,8.4,1.22,9.49-.68s-2.17-7.59-6.24-8.4c-8.26-1.63-16.13,17.35-20.73,15.72-1.76-.68-1.9-4.07-2.44-20.87C437.85,225.92,437.85,222.53,436.08,221.85Z"/><path class="cls-5" d="M502.9,556.6c-5,5.15-7.46,18.16-5.15,30.49a109.77,109.77,0,0,0,2.3,11.66,128.93,128.93,0,0,0,5.56,15.86c3.39,8.13,6.64,15.45,13.42,22.22,4.06,4.07,11.24,11.25,22.63,12.47,13,1.36,22.5-5.83,24.53-7.45,7.18-5.83,9.76-13,12.6-20.74s2.58-14,3.8-30.76a114.09,114.09,0,0,0-1.49-26.3c-1.36-8.8-3.8-13.28-9.63-16-3.11-1.49-3.66-.81-5.55,1.76-2.85,3.66,3.11,8.81,4.2,20.33.13,2.31-.27,3.26-2.85,20.6-1.62,11.12-2.57,16.67-3.66,19.25-4.2,10.84-15.31,22.36-24.12,20.46-5.83-1.22-9.08-7.86-14.5-18.43-2.58-5-4.47-8.81-6.37-12.87-.68-1.49-3.12-6.51-4.07-8.81-7.18-16.54-3-30.36-8.4-32.39C502.9,556.6,503,556.47,502.9,556.6Z"/><path class="cls-19" d="M509.4,567.85c4.2-3.8,9-1.36,22.91-1,23.85.68,30.08-6,35.78-.95,6.64,5.83,3.79,19.25-.55,38.49C564,620.3,560.77,626,556,629.51A22.21,22.21,0,0,1,543.56,634c-8.41.27-14.37-4.75-18.3-8-12.2-10.16-15.45-24-17.21-31.17C506.29,587,502.9,573.54,509.4,567.85Z"/><path class="cls-20" d="M566.87,572.05a13.51,13.51,0,0,0,5.15-3.93,24.14,24.14,0,0,0,1.49-10.3,24.44,24.44,0,0,0-6.64-14.5c-6.1-6.64-14-7.86-19-8.67-4.47-.82-21.41-3.53-34.29,7.58-1.76,1.5-12.6,10.71-11.11,22.64.54,4.88,3.39,11.65,8.4,13.28"/><path class="cls-21" d="M319.94,714.76c6.5-19.65,41.47-25.07,45.81-18.3,1.76,2.71-2.44,5.42-7.19,21-3.25,10.16-2.3,11.93-5,14.91-6.51,7.45-22.91,9.76-30.5,1.35C318.18,728.58,318,720.45,319.94,714.76Z"/><path class="cls-21" d="M324.82,740.37c7.31-6.77,21.27-6.23,29.54.68,6.64,5.56,7.86,13.69,8.4,17.48.55,3.39.41,6.1-6.37,28.87-3.52,11.93-4.6,15.05-7.59,16-4.74,1.49-10.3-3.93-13.28-6.91-6.91-6.77-9.21-14.09-13.28-27.37s-3.52-18.16-1.76-22.37A17.26,17.26,0,0,1,324.82,740.37Z"/><path class="cls-21" d="M648.32,554.43c7.18-10,32.12-1.9,33.61-1.35,0,0,22.22,7.32,32.25,29.81,1.9,4.34,2.44,7.05,1.22,8.81-2.3,3.39-8.94.54-21.68,3.25a36.32,36.32,0,0,1-3.93.68c-.54,0-8.27,1.09-13-2.44a16,16,0,0,1-2.58-2.71c-1.49-1.76-2.84-3.11-12.06-10.7-13-10.85-14.36-11.39-15.18-14.37A13.49,13.49,0,0,1,648.32,554.43Z"/><path class="cls-21" d="M690.74,619.62c-6.1-5.42-6-17.35-1-24.12,8.27-11.25,31.44-10.44,37.67,1,3.93,7.18-.27,16.39-1.22,18.43-4.47,3.25-13.55,8.81-25.07,8.13C697.78,622.74,693.85,622.33,690.74,619.62Z"/><path class="cls-21" d="M707.81,650.93a29.68,29.68,0,0,1-13-29c8.54-11.24,24.13-13,33.48-5.42,10.3,8.41,10.84,26.16,1.49,33.48C724.21,654.45,715.67,654.45,707.81,650.93Z"/><path class="cls-21" d="M732.48,739.43c6,1.22,18.16-18.57,20.19-39.17.54-5.29,1.76-24.53-10.16-40.12-3.25-4.2-8.27-10.57-16.54-11.79-.67-.13-10.43-1.35-16.26,4.47-12.47,12.61,3.52,47.44,6,52.72,3.8,8.27,6.64,11.12,11.39,23.18C730.18,736.44,730.58,739,732.48,739.43Z"/><path class="cls-21" d="M366.56,645.91c-4.88-3.93-14.1.14-21.82,3.66-2.31.95-7.18,4.07-16.81,10-7.31,4.47-8.67,5.42-9.89,7.45-3.52,5.7-3.66,14.91.95,19.11,4.2,3.8,10.71,1.9,23.72-2s20.32-6,24.53-13.28a26.35,26.35,0,0,0,2.84-15C369.54,651.74,369.13,648.08,366.56,645.91Z"/><path class="cls-21" d="M368.32,690.91c4.34-6.64,5-16.81,1.22-19.52-4.2-3-9.76,5.69-26.29,10C329.7,684.94,321,682.5,317,688.87c-2.17,3.39-2,7.59-2,9.22s.14,9.08,4.2,11.79c3.66,2.44,8.27-.27,20.06-5.28C360.46,695.92,364.53,696.87,368.32,690.91Z"/><path class="cls-21" d="M538,481.65c-12.47,4.48-21-15.72-40.93-16.26-15-.41-15.45,11.11-38.62,18-23.86,7.18-35.92-1.36-45.81,9.08-8.13,8.67-8.41,23.71-6,24.66,2,.82,7.86-8.81,8.41-8.4.81.54-16.81,24.67-12.61,28.87,3,3,15.45-6.1,17.49-3.66,2.44,3.11-18.3,17.62-15,30.76,1.49,6.37,7,5.56,12.06,15.72,1.22,2.44,5.43,11.12,3.66,21.15-1.62,8.8-6.1,9.35-7.86,17.48-1.89,8.94,2,16.67,6.1,24.66,4.61,9.08,15.86,26.3,22.23,24.13,8.4-2.85,4.2-37.27,4.88-37.41s-.82,23.18,2.44,23.72c3.66.68,16.53-27.92,6.64-40.25-3.39-4.2-7.73-4.47-10.84-10.57-2.44-4.61-3.53-11.66-.68-16.81,4.2-7.45,13.28-3.93,23.85-10.3,15-8.94,18.7-28.73,19.11-28.46s-10.3,22.77-7.59,24.53c1.63,1.09,8.13-5.55,12.47-11.65,5.83-8.27,8.27-16.27,8.81-16.13s-5,14.23-1.63,16.53c2,1.36,6.78-2.3,11.39-6,12.46-9.89,16.39-18.57,24-18.57a15.15,15.15,0,0,1,4.34.68c4.47,1.76,6,6.37,16.81,10.16a28.59,28.59,0,0,0,5.82,1.5c13.56,2.57,25.62,4.87,27.79.94,1.89-3.65-5-11.11-4.75-11.24s7.86,12.74,10.84,11.65c2.17-.81.41-7.86,2.85-8.81s5.29,6.24,13.15,9.49c6.23,2.57,8.26-.54,13.68,1.9A20.54,20.54,0,0,1,636,570.29c0,8-6.91,9.35-8.13,18-1.08,8.27,3.93,15.05,9.9,23.18,3.93,5.28,14.9,20.19,22.22,17.62,4.07-1.49,5-7.59,6.91-19.52,2.44-15,3.93-24.66-1.49-32.25-5.15-7.05-11.11-5.29-13.82-12.07-3-7,2.85-11.11,2.44-21.41-.54-14-11.93-23.85-11.11-24.39s12.74,14.09,13.82,13.28c1.36-1-14.37-25.62-13.82-25.89s11.79,20.06,16.53,18.43c3.12-1.08,3-11.65,1.22-19.51-4.34-19.38-21.95-40.12-43.91-43.91-11.38-2-13.15,2.57-33.75.54-14.5-1.49-19-4.2-25.88-1.22C545.05,466.2,547.21,478.27,538,481.65Z"/><path class="cls-21" d="M487.85,389.36c-5.55.14-11-15.58-13.28-26.56-3.52-17.35.95-22.77-4.47-35.1-1.63-3.66-6.78-15.45-14.37-15.86-11.92-.54-21.41,27.51-24.93,25.89-1.49-.68-.82-6-.14-11.39.54-4.06.68-6.1,1.76-8.67,2.58-6.1,6.78-7.46,6.1-10.44-.54-2-2.84-3.25-4.47-3.66-4.2-1.08-7.32,2.31-8.27,1.36-1.22-1.22,2.17-7.73,7.86-12.47,3.12-2.57,6.51-5.42,10.85-5.56,8.53-.13,13.68,10.3,16.67,8.68s-1-12.06,1.35-13c2.58-1.09,9.08,11.11,12.47,9.89,2.71-.95,1.08-10.16,2.57-10.44,2-.4,6.51,14,8.41,19.93,3.66,11.65,5.82,20.6,6.64,23.85a192.44,192.44,0,0,1,4.47,21.41c2.58,19.93-.54,28.73-1.63,31.58C493.82,383,491.24,389.23,487.85,389.36Z"/><path class="cls-21" d="M538.27,367.68c-3.66-3-1.9-7.19-3.66-18.43-1.49-9.63-4.06-15.59-2.17-16.67,1.49-.82,3.39,2.44,5.69,1.76,1.63-.41,3.26-2.71,5.15-18.43,1-8.14,1.5-12.2,1.36-14.23-.14-4.75-.54-9.63,1.63-15.73,1.49-4.33,3-4.06,9.89-12.6,6.1-7.72,8.81-13.28,10.44-12.74s-1.5,8.4,2,11.52c2.44,2,6.64.95,9.48.14,9.49-2.71,14.91-9.22,15.59-8.54s-8.27,9.08-6.1,14.5c1.9,4.74,11.25,3.93,12.2,8.54.54,2.44-1.76,4.74-1.9,4.88-3.25,3.25-8.4,1-9.21,2.57-1.77,3.39,18,16.13,16.53,18.84-.68,1.22-5,0-7.18-.54-7-1.9-8.81-4.61-14.91-7.18-4.34-1.9-11.11-4.75-16.26-2-1.9.95-3.8,2.85-6,8.81-3.11,8.27-2.44,13.15-3.39,26.16a96.9,96.9,0,0,1-5.42,24.12c-.81,2.17-2.16,5.56-5.42,6.78A9.65,9.65,0,0,1,538.27,367.68Z"/><path class="cls-21" d="M420.63,575.17c-5.82-6.37-5.82-19.11-15.18-18-15,1.63-50.28,22.09-58.68,36.46-17.48,29.68-23,18.43-28.19,28a43.38,43.38,0,0,0-4.06,26.7c1.08,6,2,10.71,5.82,13.55,12.47,9.36,42.56-13,46.35-16,7.73-5.83,26.3-10.7,35.38-17.75,20.6-16.13,15-14.64,19.78-28.06a44.63,44.63,0,0,0,1.63-8.53C423.62,588,424.43,579.37,420.63,575.17Z"/></g></g></g></svg>