<?xml version="1.0" encoding="utf-8"?>
<!-- Generator: Adobe Illustrator 23.0.1, SVG Export Plug-In . SVG Version: 6.00 Build 0)  -->
<svg version="1.1" id="Calque_1" xmlns="http://www.w3.org/2000/svg" xmlns:xlink="http://www.w3.org/1999/xlink" x="0px" y="0px"
	 viewBox="0 0 721 322.6" style="enable-background:new 0 0 721 322.6;" xml:space="preserve">
<style type="text/css">
	.st0{fill:#897158;}
	.st1{fill:#705741;}
	.st2{fill:#A88F71;}
	.st3{fill:#D3AF90;}
	.st4{fill:url(#Tracé_150-2_1_);}
	.st5{fill:url(#Tracé_151-2_1_);}
	.st6{fill:url(#Tracé_152-2_1_);}
	.st7{fill:url(#Tracé_153-2_1_);}
	.st8{fill:url(#Tracé_154-2_1_);}
	.st9{fill:url(#Tracé_155-2_1_);}
	.st10{fill:url(#Tracé_156-2_1_);}
	.st11{fill:url(#Tracé_157-2_1_);}
	.st12{fill:url(#Tracé_158-2_1_);}
	.st13{fill:url(#Tracé_159-2_1_);}
	.st14{fill:url(#Tracé_160-2_1_);}
	.st15{fill:url(#Tracé_161-2_1_);}
	.st16{fill:url(#Tracé_162-2_1_);}
	.st17{fill:url(#Tracé_163-2_1_);}
	.st18{fill:url(#Tracé_164-2_1_);}
	.st19{fill:url(#Tracé_165-2_1_);}
	.st20{fill:url(#Tracé_166-2_1_);}
	.st21{fill:url(#Tracé_167-2_1_);}
	.st22{fill:url(#Tracé_168-2_1_);}
	.st23{fill:url(#Tracé_169-2_1_);}
	.st24{fill:url(#Tracé_170-2_1_);}
	.st25{fill:url(#Tracé_171-2_1_);}
	.st26{fill:url(#Tracé_172-2_1_);}
	.st27{fill:url(#Tracé_173-2_1_);}
	.st28{fill:url(#Tracé_174-2_1_);}
</style>
<g id="Groupe_53" transform="translate(-565.383 -799)">
	<g id="Montagne_fond" transform="translate(-2212.039 76.635)">
		<path id="Tracé_150" class="st0" d="M3497.3,1044.9c-6.2-6.7-37.6-40.3-50.7-49c-14.6-9.7-17.8-32.4-17.8-32.4
			s-17.8-29.1-32.4-32.4s-43.7-25.9-43.7-25.9l-9.7-9.7c-9.7-9.7-47-61.5-58.3-66.4s-35.6-48.6-35.6-48.6s-14.6-55.1-24.3-56.7
			s-13,47-29.1,48.6s-14.6,43.7-27.5,48.6s-29.1,32.4-34,51.8s-47,58.3-51.8,56.7s-34,17.8-37.2,38.9c-3,19.3-54.7,68.3-63.5,76.5
			L3497.3,1044.9z"/>
		<path id="Tracé_151" class="st1" d="M3317,1044.9l-16.4-22.7l-40.5-21.9l19.4-41.3l-11.3-35.6l11.3-17l-17,8.1l-13,41.3
			l-15.4-38.1l-3.2-42.9l15.4-26.7l-20.2,14.6l-16.2,47.8l-17.8-30l4.9-21.9l17.8-29.1l-5.7-28.3l-1.6,24.3l-25.9,25.1l-11.3,17
			l2.4-23.5l19.4-18.6V794l6.5-22.7c0,0-8.1,0.8-12.1,8.1s-7.3,21.9-9.7,30s-8.9,8.1-18.6,13.8s-21.9,38-27.5,53.4s-48.3,53-48.3,53
			l-75.9,115.4L3317,1044.9z"/>
		<path id="Tracé_152" class="st2" d="M3224.8,1044.9c-7.9-6.9-28.6-24.7-38.9-31.2c-13-8.1-40.5-13-53.4-27.5
			s-29.1-53.4-29.1-53.4l-21-3.2l-9.7-25.9l-6.5-19.4c0,0-14.9-28.7-29.4-38.4s-28.8-74.9-28.8-74.9l-13-13c0,0-21.1,27.5-24.3,50.2
			s-25.9,56.7-25.9,56.7l-27.4,19.9c0,0-32.5,75.7-47.1,85.4s-43.7,22.7-53.4,38.9c-8.3,13.9-32.2,31.4-38.8,36L3224.8,1044.9z"/>
		<path id="Tracé_153" class="st0" d="M2980,849l27.1,18.6l-32.8-7.3l-9.7,29.1l47.4,21.9l-43.7-6.1l16.6,15l8.9,9.3l-19.4,4.9
			l-2.4,11.7l-25.5,28.3l-15.8-80.2L2980,849z"/>
		<path id="Tracé_154" class="st0" d="M3005.9,975.3l44.9,25.9l-48.6-15.8L3005.9,975.3z"/>
		<path id="Tracé_155" class="st0" d="M2985.2,802.1l13.4,42.5l-21.9-36.4L2985.2,802.1z"/>
		<path id="Tracé_156" class="st0" d="M2994.8,757.9l13.5,62.4l-19.4-52.2L2994.8,757.9z"/>
		<path id="Tracé_157" class="st3" d="M2974.3,860.3l32.8,7.3l32.8,35.2l-38.9-26.7l-31.6-3.6L2974.3,860.3z"/>
		<path id="Tracé_158" class="st3" d="M2977.9,908.9l34,2.4l41.3,46.1l-41.3-15.8l2.4,24.3l36.4,35.2l-36.4-20.6l-42.5-34.4
			l2.4-11.7l13.4-4.9L2977.9,908.9z"/>
		<path id="Tracé_159" class="st3" d="M3026.5,959.9l7.3,13.4l42.5,44.9l-31.3-49.8L3026.5,959.9z"/>
		<path id="Tracé_160" class="st2" d="M3228.1,800.8l36.4,29.1l-32.8-10.9l30.4,36.4l32.8,25.5l-35.2-6.1l-7.3,34l17-19.4l43.7,17
			l-23.1,23.1l10.9,25.5l37.6,13.4l-35.2,15.8l42.5-2.4l21.9,26.7c0,0,40.1,9.7,43.7,12.1s-36.4,4.9-36.4,4.9l116.2,19.4h5.8
			c-8.7-7.7-57.1-51.3-63.7-66.8c-7.3-17-8.5-41.3-35.2-53.4s-41.3-20.6-41.3-20.6l-24.3-31.6l-25.5-17l-10.9-23.1l-17-4.9l-23.1-51
			l-14.6-17c0,0-4.3-31.2-16.7-35.6c-12.3-4.4,3.3,33.2,3.3,33.2l-9.7,17L3228.1,800.8z"/>
		<path id="Tracé_161" class="st3" d="M2985.2,802.1l6.1-26.7l17,44.9l4.9,31.6l-20.6-52.2L2985.2,802.1z"/>
		<path id="Tracé_162" class="st3" d="M2994.8,757.9l13,13l13.9,50.6l1.2,30.4l-12.1-49.8L2994.8,757.9z"/>
		<path id="Tracé_163" class="st3" d="M3075.1,974.5l26.7,15.8l4.9,47.4L3075.1,974.5z"/>
		<path id="Tracé_164" class="st3" d="M3218.4,774.1l9.7,26.7l36.4,29.1l-36.4-44.9v-27.9L3218.4,774.1z"/>
		<path id="Tracé_165" class="st3" d="M3231.8,819.1l30.4,36.4l32.8,25.5l-21.9-35.2L3231.8,819.1z"/>
		<path id="Tracé_166" class="st3" d="M3303.4,866.4l10.9,26.7l41.3,30.4L3303.4,866.4z"/>
		<path id="Tracé_167" class="st3" d="M3269.4,889.5l-9.7-14.6l53.4,31.6L3269.4,889.5z"/>
		<path id="Tracé_168" class="st3" d="M3290,929.6l10.9,25.5l37.6,13.4l34,10.9l18.2,21.9l36.4,8.5l-32.8-20.6l-18.2-25.5
			l-47.4-12.1l38.9-8.5l26.7,27.9l-23.1-37.6l-49.8,6.1L3290,929.6z"/>
		<path id="Tracé_169" class="st3" d="M3440.2,1007.5l10,16.7c0,0.1,0.1,0.1,0.2,0.1l44.2,20.1c0.4,0.2,0.7-0.4,0.3-0.6l-54.2-36.8
			C3440.4,1006.8,3440,1007.1,3440.2,1007.5z"/>
		<path id="Tracé_170" class="st3" d="M3104.2,951.4l17,37.6l27.9,29.1l11.1,26.7h1v-21.9l-24.3-30.4l-17-34l-16.7-25.9
			c0,0-19.7-0.8-21-3.2l-33.9-35.2l24.3,48.6L3104.2,951.4z"/>
		<path id="Tracé_171" class="st3" d="M3087.2,1044.9l-76.5-30.4l46.1,30.4H3087.2z"/>
		<path id="Tracé_172" class="st0" d="M3056.8,1044.9l-46.1-30.4l-4.9-39.3l-34-29.1l13-25.9l-20.2-30.8L2980,849l5.3-47l8.5-37.6
			l1.1-6.5l-13.3,11.4l-17.8,31.2l-11.3,45.3l-27.1,25.2c-7.5,5.5-11,19.8-15,28.2l-19.1,20.3l-27.8,46.1c0,0-44.8,29.2-50.6,39.3
			c-5.1,8.9-29.7,34.3-35.4,40.1L3056.8,1044.9z"/>
		<path id="Tracé_173" class="st1" d="M2907.1,992.3l-48.3,52.6h68.5l57.9-21.9l6.1-35.2l-34-34l8.5-23.1l-10.9-9.7v-29.1
			l12.1-36.4l13-6.5l-10.5-21.5l12.1-58.3l-17.8,31.2l-11.3,45.3l-18.2,30.4l-4.9,46.1l-7.3-14.6l3.6-29.1l-13.4,32.8l2.4,21.9
			l-26.3,38.1L2907.1,992.3z"/>
		<path id="Tracé_174" class="st1" d="M2840.2,1044.9l11.9-36.4l25.9-19.4l-34,12.1l-42.9,43.7L2840.2,1044.9z"/>
	</g>
	<g id="Montagne_fond_effet" transform="translate(-2212.039 76.635)">
		
			<linearGradient id="Tracé_150-2_1_" gradientUnits="userSpaceOnUse" x1="2180.0913" y1="1422.7955" x2="2180.0823" y2="1422.0885" gradientTransform="matrix(515.7551 0 0 -321.0686 -1121149.75 457663.5625)">
			<stop  offset="0" style="stop-color:#567E93;stop-opacity:0.549"/>
			<stop  offset="1" style="stop-color:#113446"/>
		</linearGradient>
		<path id="Tracé_150-2" class="st4" d="M3497.3,1044.9c-6.2-6.7-37.6-40.3-50.7-49c-14.6-9.7-17.8-32.4-17.8-32.4
			s-17.8-29.1-32.4-32.4s-43.7-25.9-43.7-25.9l-9.7-9.7c-9.7-9.7-47-61.5-58.3-66.4s-35.6-48.6-35.6-48.6s-14.6-55.1-24.3-56.7
			s-13,47-29.1,48.6s-14.6,43.7-27.5,48.6s-29.1,32.4-34,51.8s-47,58.3-51.8,56.7s-34,17.8-37.2,38.9c-3,19.3-54.7,68.3-63.5,76.5
			L3497.3,1044.9z"/>
		
			<linearGradient id="Tracé_151-2_1_" gradientUnits="userSpaceOnUse" x1="2180.8586" y1="1422.5909" x2="2180.8496" y2="1421.8839" gradientTransform="matrix(310.5745 0 0 -273.6489 -674154.875 390168.0625)">
			<stop  offset="0" style="stop-color:#567E93;stop-opacity:0.549"/>
			<stop  offset="1" style="stop-color:#113446"/>
		</linearGradient>
		<path id="Tracé_151-2" class="st5" d="M3317,1044.9l-16.4-22.7l-40.5-21.9l19.4-41.3l-11.3-35.6l11.3-17l-17,8.1l-13,41.3
			l-15.4-38.1l-3.2-42.9l15.4-26.7l-20.2,14.6l-16.2,47.8l-17.8-30l4.9-21.9l17.8-29.1l-5.7-28.3l-1.6,24.3l-25.9,25.1l-11.3,17
			l2.4-23.5l19.4-18.6V794l6.5-22.7c0,0-8.1,0.8-12.1,8.1s-7.3,21.9-9.7,30s-8.9,8.1-18.6,13.8s-21.9,38-27.5,53.4s-48.3,53-48.3,53
			l-75.9,115.4L3317,1044.9z"/>
		
			<linearGradient id="Tracé_152-2_1_" gradientUnits="userSpaceOnUse" x1="2180.2703" y1="1422.6555" x2="2180.2612" y2="1421.9485" gradientTransform="matrix(446.8521 0 0 -287.031 -971253.375 409215.6563)">
			<stop  offset="0" style="stop-color:#567E93;stop-opacity:0.549"/>
			<stop  offset="1" style="stop-color:#113446"/>
		</linearGradient>
		<path id="Tracé_152-2" class="st6" d="M3224.8,1044.9c-7.9-6.9-28.6-24.7-38.9-31.2c-13-8.1-40.5-13-53.4-27.5
			s-29.1-53.4-29.1-53.4l-21-3.2l-9.7-25.9l-6.5-19.4c0,0-14.9-28.7-29.4-38.4s-28.8-74.9-28.8-74.9l-13-13c0,0-21.1,27.5-24.3,50.2
			s-25.9,56.7-25.9,56.7l-27.4,19.9c0,0-32.5,75.7-47.1,85.4s-43.7,22.7-53.4,38.9c-8.3,13.9-32.2,31.4-38.8,36L3224.8,1044.9z"/>
		
			<linearGradient id="Tracé_153-2_1_" gradientUnits="userSpaceOnUse" x1="2186.2849" y1="1420.955" x2="2186.2759" y2="1420.2479" gradientTransform="matrix(81.3589 0 0 -125.487 -174902.4063 179209.1094)">
			<stop  offset="0" style="stop-color:#567E93;stop-opacity:0.549"/>
			<stop  offset="1" style="stop-color:#113446"/>
		</linearGradient>
		<path id="Tracé_153-2" class="st7" d="M2980,849l27.1,18.6l-32.8-7.3l-9.7,29.1l47.4,21.9l-43.7-6.1l16.6,15l8.9,9.3l-19.4,4.9
			l-2.4,11.7l-25.5,28.3l-15.8-80.2L2980,849z"/>
		
			<linearGradient id="Tracé_154-2_1_" gradientUnits="userSpaceOnUse" x1="2191.2571" y1="1409.3407" x2="2191.248" y2="1408.6337" gradientTransform="matrix(48.5759 0 0 -25.908 -103415.6406 37498.5156)">
			<stop  offset="0" style="stop-color:#567E93;stop-opacity:0.549"/>
			<stop  offset="1" style="stop-color:#113446"/>
		</linearGradient>
		<path id="Tracé_154-2" class="st8" d="M3005.9,975.3l44.9,25.9l-48.6-15.8L3005.9,975.3z"/>
		
			<linearGradient id="Tracé_155-2_1_" gradientUnits="userSpaceOnUse" x1="2206.3286" y1="1415.0546" x2="2206.3196" y2="1414.3475" gradientTransform="matrix(21.8579 0 0 -42.5 -45238.0195 60958.3828)">
			<stop  offset="0" style="stop-color:#567E93;stop-opacity:0.549"/>
			<stop  offset="1" style="stop-color:#113446"/>
		</linearGradient>
		<path id="Tracé_155-2" class="st9" d="M2985.2,802.1l13.4,42.5l-21.9-36.4L2985.2,802.1z"/>
		
			<linearGradient id="Tracé_156-2_1_" gradientUnits="userSpaceOnUse" x1="2209.7532" y1="1417.896" x2="2209.7441" y2="1417.189" gradientTransform="matrix(19.4299 0 0 -62.36 -39936.7148 89202.1094)">
			<stop  offset="0" style="stop-color:#567E93;stop-opacity:0.549"/>
			<stop  offset="1" style="stop-color:#113446"/>
		</linearGradient>
		<path id="Tracé_156-2" class="st10" d="M2994.8,757.9l13.5,62.4l-19.4-52.2L2994.8,757.9z"/>
		
			<linearGradient id="Tracé_157-2_1_" gradientUnits="userSpaceOnUse" x1="2187.4294" y1="1415.0555" x2="2187.4207" y2="1414.3486" gradientTransform="matrix(70.4351 0 0 -42.505 -151066.8438 61023.8008)">
			<stop  offset="0" style="stop-color:#567E93;stop-opacity:0.549"/>
			<stop  offset="1" style="stop-color:#113446"/>
		</linearGradient>
		<path id="Tracé_157-2" class="st11" d="M2974.3,860.3l32.8,7.3l32.8,35.2l-38.9-26.7l-31.6-3.6L2974.3,860.3z"/>
		
			<linearGradient id="Tracé_158-2_1_" gradientUnits="userSpaceOnUse" x1="2186.2852" y1="1419.8682" x2="2186.2764" y2="1419.1613" gradientTransform="matrix(81.3611 0 0 -92.295 -174865.9063 131991.5625)">
			<stop  offset="0" style="stop-color:#567E93;stop-opacity:0.549"/>
			<stop  offset="1" style="stop-color:#113446"/>
		</linearGradient>
		<path id="Tracé_158-2" class="st12" d="M2977.9,908.9l34,2.4l41.3,46.1l-41.3-15.8l2.4,24.3l36.4,35.2l-36.4-20.6l-42.5-34.4
			l2.4-11.7l13.4-4.9L2977.9,908.9z"/>
		
			<linearGradient id="Tracé_159-2_1_" gradientUnits="userSpaceOnUse" x1="2190.9546" y1="1417.4717" x2="2190.9456" y2="1416.7646" gradientTransform="matrix(49.7871 0 0 -58.292 -106029.8125 83609.8125)">
			<stop  offset="0" style="stop-color:#567E93;stop-opacity:0.549"/>
			<stop  offset="1" style="stop-color:#113446"/>
		</linearGradient>
		<path id="Tracé_159-2" class="st13" d="M3026.5,959.9l7.3,13.4l42.5,44.9l-31.3-49.8L3026.5,959.9z"/>
		
			<linearGradient id="Tracé_160-2_1_" gradientUnits="userSpaceOnUse" x1="2181.074" y1="1422.7968" x2="2181.0649" y2="1422.0897" gradientTransform="matrix(278.6602 0 0 -321.3729 -604420 458096.7188)">
			<stop  offset="0" style="stop-color:#567E93;stop-opacity:0.549"/>
			<stop  offset="1" style="stop-color:#113446"/>
		</linearGradient>
		<path id="Tracé_160-2" class="st14" d="M3228.1,800.8l36.4,29.1l-32.8-10.9l30.4,36.4l32.8,25.5l-35.2-6.1l-7.3,34l17-19.4
			l43.7,17l-23.1,23.1l10.9,25.5l37.6,13.4l-35.2,15.8l42.5-2.4l21.9,26.7c0,0,40.1,9.7,43.7,12.1s-36.4,4.9-36.4,4.9l116.2,19.4
			h5.8c-8.7-7.7-57.1-51.3-63.7-66.8c-7.3-17-8.5-41.3-35.2-53.4s-41.3-20.6-41.3-20.6l-24.3-31.6l-25.5-17l-10.9-23.1l-17-4.9
			l-23.1-51l-14.6-17c0,0-4.3-31.2-16.7-35.6c-12.3-4.4,3.3,33.2,3.3,33.2l-9.7,17L3228.1,800.8z"/>
		
			<linearGradient id="Tracé_161-2_1_" gradientUnits="userSpaceOnUse" x1="2200.3721" y1="1419.0204" x2="2200.3633" y2="1418.3134" gradientTransform="matrix(27.9299 0 0 -76.507 -58456.9453 109369.9844)">
			<stop  offset="0" style="stop-color:#567E93;stop-opacity:0.549"/>
			<stop  offset="1" style="stop-color:#113446"/>
		</linearGradient>
		<path id="Tracé_161-2" class="st15" d="M2985.2,802.1l6.1-26.7l17,44.9l4.9,31.6l-20.6-52.2L2985.2,802.1z"/>
		
			<linearGradient id="Tracé_162-2_1_" gradientUnits="userSpaceOnUse" x1="2200.2896" y1="1419.9399" x2="2200.2805" y2="1419.2329" gradientTransform="matrix(28.0349 0 0 -93.9349 -58676.0273 134176.3594)">
			<stop  offset="0" style="stop-color:#567E93;stop-opacity:0.549"/>
			<stop  offset="1" style="stop-color:#113446"/>
		</linearGradient>
		<path id="Tracé_162-2" class="st16" d="M2994.8,757.9l13,13l13.9,50.6l1.2,30.4l-12.1-49.8L2994.8,757.9z"/>
		
			<linearGradient id="Tracé_163-2_1_" gradientUnits="userSpaceOnUse" x1="2197.8965" y1="1417.972" x2="2197.8875" y2="1417.265" gradientTransform="matrix(31.571 0 0 -63.149 -66298.9609 90542.6094)">
			<stop  offset="0" style="stop-color:#567E93;stop-opacity:0.549"/>
			<stop  offset="1" style="stop-color:#113446"/>
		</linearGradient>
		<path id="Tracé_163-2" class="st17" d="M3075.1,974.5l26.7,15.8l4.9,47.4L3075.1,974.5z"/>
		
			<linearGradient id="Tracé_164-2_1_" gradientUnits="userSpaceOnUse" x1="2191.9053" y1="1418.7726" x2="2191.8962" y2="1418.0656" gradientTransform="matrix(46.147 0 0 -72.864 -97908.1875 104162.7969)">
			<stop  offset="0" style="stop-color:#567E93;stop-opacity:0.549"/>
			<stop  offset="1" style="stop-color:#113446"/>
		</linearGradient>
		<path id="Tracé_164-2" class="st18" d="M3218.4,774.1l9.7,26.7l36.4,29.1l-36.4-44.9v-27.9L3218.4,774.1z"/>
		
			<linearGradient id="Tracé_165-2_1_" gradientUnits="userSpaceOnUse" x1="2188.4089" y1="1417.854" x2="2188.3999" y2="1417.147" gradientTransform="matrix(63.1492 0 0 -61.932 -134932.7813 88653.6563)">
			<stop  offset="0" style="stop-color:#567E93;stop-opacity:0.549"/>
			<stop  offset="1" style="stop-color:#113446"/>
		</linearGradient>
		<path id="Tracé_165-2" class="st19" d="M3231.8,819.1l30.4,36.4l32.8,25.5l-21.9-35.2L3231.8,819.1z"/>
		
			<linearGradient id="Tracé_166-2_1_" gradientUnits="userSpaceOnUse" x1="2190.394" y1="1417.3331" x2="2190.3853" y2="1416.6262" gradientTransform="matrix(52.22 0 0 -57.077 -111052.7344 81785.6641)">
			<stop  offset="0" style="stop-color:#567E93;stop-opacity:0.549"/>
			<stop  offset="1" style="stop-color:#113446"/>
		</linearGradient>
		<path id="Tracé_166-2" class="st20" d="M3303.4,866.4l10.9,26.7l41.3,30.4L3303.4,866.4z"/>
		
			<linearGradient id="Tracé_167-2_1_" gradientUnits="userSpaceOnUse" x1="2190.1335" y1="1411.9672" x2="2190.1245" y2="1411.2601" gradientTransform="matrix(53.4341 0 0 -31.574 -113741.2969 45468.5977)">
			<stop  offset="0" style="stop-color:#567E93;stop-opacity:0.549"/>
			<stop  offset="1" style="stop-color:#113446"/>
		</linearGradient>
		<path id="Tracé_167-2" class="st21" d="M3269.4,889.5l-9.7-14.6l53.4,31.6L3269.4,889.5z"/>
		
			<linearGradient id="Tracé_168-2_1_" gradientUnits="userSpaceOnUse" x1="2183.2886" y1="1419.2455" x2="2183.2795" y2="1418.5385" gradientTransform="matrix(137.2241 0 0 -80.147 -296241 114708.9219)">
			<stop  offset="0" style="stop-color:#567E93;stop-opacity:0.549"/>
			<stop  offset="1" style="stop-color:#113446"/>
		</linearGradient>
		<path id="Tracé_168-2" class="st22" d="M3290,929.6l10.9,25.5l37.6,13.4l34,10.9l18.2,21.9l36.4,8.5l-32.8-20.6l-18.2-25.5
			l-47.4-12.1l38.9-8.5l26.7,27.9l-23.1-37.6l-49.8,6.1L3290,929.6z"/>
		
			<linearGradient id="Tracé_169-2_1_" gradientUnits="userSpaceOnUse" x1="2189.0583" y1="1414.5127" x2="2189.0498" y2="1413.8425" gradientTransform="matrix(58.999 0 0 -40.054 -125684.3594 57678.3438)">
			<stop  offset="0" style="stop-color:#567E93;stop-opacity:0.549"/>
			<stop  offset="1" style="stop-color:#113446"/>
		</linearGradient>
		<path id="Tracé_169-2" class="st23" d="M3440.1,1007.2l10.2,17c0,0.1,0.1,0.1,0.1,0.1l44.8,20.4c0.3,0.1,0.6-0.3,0.3-0.5
			l-55-37.4C3440.3,1006.7,3439.9,1007,3440.1,1007.2z"/>
		
			<linearGradient id="Tracé_170-2_1_" gradientUnits="userSpaceOnUse" x1="2184.2273" y1="1421.4585" x2="2184.2185" y2="1420.7516" gradientTransform="matrix(112.9351 0 0 -150.586 -243570.8438 215004.5938)">
			<stop  offset="0" style="stop-color:#567E93;stop-opacity:0.549"/>
			<stop  offset="1" style="stop-color:#113446"/>
		</linearGradient>
		<path id="Tracé_170-2" class="st24" d="M3104.2,951.4l17,37.6l27.9,29.1l11.1,26.7h1v-21.9l-24.3-30.4l-17-34l-16.7-25.9
			c0,0-19.7-0.8-21-3.2l-33.9-35.2l24.3,48.6L3104.2,951.4z"/>
		
			<linearGradient id="Tracé_171-2_1_" gradientUnits="userSpaceOnUse" x1="2186.7573" y1="1411.4869" x2="2186.7485" y2="1410.7799" gradientTransform="matrix(76.4619 0 0 -30.36 -164154.5781 43879.0898)">
			<stop  offset="0" style="stop-color:#567E93;stop-opacity:0.549"/>
			<stop  offset="1" style="stop-color:#113446"/>
		</linearGradient>
		<path id="Tracé_171-2" class="st25" d="M3087.2,1044.9l-76.5-30.4l46.1,30.4H3087.2z"/>
		
			<linearGradient id="Tracé_172-2_1_" gradientUnits="userSpaceOnUse" x1="2181.0737" y1="1422.6555" x2="2181.0647" y2="1421.9485" gradientTransform="matrix(279.4131 0 0 -287.027 -606501.1875 409209.9063)">
			<stop  offset="0" style="stop-color:#567E93;stop-opacity:0.549"/>
			<stop  offset="1" style="stop-color:#113446"/>
		</linearGradient>
		<path id="Tracé_172-2" class="st26" d="M3056.8,1044.9l-46.1-30.4l-4.9-39.3l-34-29.1l13-25.9l-20.2-30.8L2980,849l5.3-47
			l8.5-37.6l1.1-6.5l-13.3,11.4l-17.8,31.2l-11.3,45.3l-27.1,25.2c-7.5,5.5-11,19.8-15,28.2l-19.1,20.3l-27.8,46.1
			c0,0-44.8,29.2-50.6,39.3c-5.1,8.9-29.7,34.3-35.4,40.1L3056.8,1044.9z"/>
		
			<linearGradient id="Tracé_173-2_1_" gradientUnits="userSpaceOnUse" x1="2183.4502" y1="1422.6011" x2="2183.4412" y2="1421.894" gradientTransform="matrix(132.4709 0 0 -275.6701 -286317.8125 393044.9375)">
			<stop  offset="0" style="stop-color:#567E93;stop-opacity:0.549"/>
			<stop  offset="1" style="stop-color:#113446"/>
		</linearGradient>
		<path id="Tracé_173-2" class="st27" d="M2907.1,992.3l-48.3,52.6h68.5l57.9-21.9l6.1-35.2l-34-34l8.5-23.1l-10.9-9.7v-29.1
			l12.1-36.4l13-6.5l-10.5-21.5l12.1-58.3l-17.8,31.2l-11.3,45.3l-18.2,30.4l-4.9,46.1l-7.3-14.6l3.6-29.1l-13.4,32.8l2.4,21.9
			l-26.3,38.1L2907.1,992.3z"/>
		
			<linearGradient id="Tracé_174-2_1_" gradientUnits="userSpaceOnUse" x1="2186.709" y1="1417.1888" x2="2186.7" y2="1416.4818" gradientTransform="matrix(76.938 0 0 -55.863 -165401.3906 80179.2422)">
			<stop  offset="0" style="stop-color:#567E93;stop-opacity:0.549"/>
			<stop  offset="1" style="stop-color:#113446"/>
		</linearGradient>
		<path id="Tracé_174-2" class="st28" d="M2840.2,1044.9l11.9-36.4l25.9-19.4l-34,12.1l-42.9,43.7L2840.2,1044.9z"/>
	</g>
</g>
</svg>
