<?xml version="1.0" encoding="utf-8"?>
<!-- Generator: Adobe Illustrator 23.0.1, SVG Export Plug-In . SVG Version: 6.00 Build 0)  -->
<svg version="1.1" id="bold" xmlns="http://www.w3.org/2000/svg" xmlns:xlink="http://www.w3.org/1999/xlink" x="0px" y="0px"
	 viewBox="0 0 512 512" style="enable-background:new 0 0 512 512;" xml:space="preserve">
<style type="text/css">
	.st0{fill:#FFFFFF;}
</style>
<path class="st0" d="M96,133.3v-96c0-5.5,0.6-10.9,2.1-16H37.3C16.9,21.3,0,38.2,0,58.7v96C0,175.1,16.9,192,37.3,192h7.9l27.3,36.3
	c3,3.8,7.5,6.2,12.2,6.4h0.6c4.7,0,9-1.9,11.9-5.5l32-36.5C109.4,180.3,96,158.3,96,133.3z"/>
<path class="st0" d="M474.7,21.3h-60.8c1.5,5.1,2.1,10.5,2.1,16v96c0,25-13.4,46.9-33.3,59.3l32,36.5c3,3.6,7.3,5.5,11.9,5.5h0.6
	c4.7-0.2,9.2-2.6,12.2-6.4l27.1-36.3h8.1c20.5,0,37.3-16.9,37.3-37.3v-96C512,38.2,495.1,21.3,474.7,21.3z"/>
<path class="st0" d="M256,213.3c-0.2,0-0.4,0-0.6,0c-4.8-0.2-9.3-2.5-12.2-6.4L216,170.7h-50.7c-20.6,0-37.3-16.7-37.3-37.3v-96
	C128,16.7,144.7,0,165.3,0h181.3C367.3,0,384,16.7,384,37.3v96c0,20.6-16.7,37.3-37.3,37.3h-46.1L268,207.9
	C265,211.3,260.6,213.3,256,213.3L256,213.3z"/>
<circle class="st0" cx="85.3" cy="320" r="42.7"/>
<path class="st0" d="M142.3,392.5c-21.5,16.2-35.6,42.2-35.6,71.5v5.3H16c-8.7,0-16-7.3-16-16v-10.7C0,410.2,26.2,384,58.7,384H112
	C123.1,384,133.5,387.2,142.3,392.5z"/>
<circle class="st0" cx="426.7" cy="320" r="42.7"/>
<path class="st0" d="M512,442.7v10.7c0,8.7-7.3,16-16,16h-90.7V464c0-29.2-14.1-55.3-35.6-71.5c8.7-5.3,19.2-8.5,30.3-8.5h53.3
	C485.8,384,512,410.2,512,442.7z"/>
<circle class="st0" cx="256" cy="309.3" r="64"/>
<path class="st0" d="M314.7,405.3H197.3c-32.4,0-58.7,26.3-58.7,58.7v32c0,8.8,7.2,16,16,16h202.7c8.8,0,16-7.2,16-16v-32
	C373.3,431.6,347,405.3,314.7,405.3z"/>
</svg>
