<?xml version="1.0" encoding="utf-8"?>
<!-- Generator: Adobe Illustrator 23.0.1, SVG Export Plug-In . SVG Version: 6.00 Build 0)  -->
<svg version="1.1" id="Calque_1" xmlns="http://www.w3.org/2000/svg" xmlns:xlink="http://www.w3.org/1999/xlink" x="0px" y="0px"
	 viewBox="0 0 682.7 682.7" style="enable-background:new 0 0 682.7 682.7;" xml:space="preserve">
<style type="text/css">
	.st0{fill:#FFFFFF;}
</style>
<path class="st0" d="M625.7,21H56.3C36.8,21,21,36.8,21,56.3v569.4c0,19.5,15.8,35.3,35.3,35.3h306.5V413.5h-83.1v-96.9h83.1v-71.3
	c0-82.7,50.5-127.7,124.2-127.7c35.3,0,65.7,2.6,74.5,3.8v86.4h-50.9c-40.1,0-47.9,19.1-47.9,47.1v61.7h95.9l-12.5,96.9h-83.4V661
	h162.8c19.5,0,35.3-15.8,35.3-35.3c0,0,0,0,0,0V56.3C661,36.8,645.2,21,625.7,21z"/>
</svg>
