<?xml version="1.0" encoding="utf-8"?>
<!-- Generator: Adobe Illustrator 23.0.1, SVG Export Plug-In . SVG Version: 6.00 Build 0)  -->
<svg version="1.1" id="Calque_1" xmlns="http://www.w3.org/2000/svg" xmlns:xlink="http://www.w3.org/1999/xlink" x="0px" y="0px"
	 viewBox="0 0 705.4 490.1" style="enable-background:new 0 0 705.4 490.1;" xml:space="preserve">
<style type="text/css">
	.st0{fill:#D8DBDC;}
	.st1{fill:#B0B2B3;}
	.st2{fill:#624E42;}
	.st3{fill:#E7C79B;}
	.st4{fill:none;stroke:#D8B993;stroke-miterlimit:10;}
	.st5{fill:#C39349;}
	.st6{fill:#815A39;}
	.st7{fill:none;stroke:#61442B;stroke-miterlimit:10;}
	.st8{fill:#86787A;}
	.st9{fill:#E8DF9F;}
	.st10{fill:#010103;}
	.st11{fill:#E2DBD6;}
	.st12{fill:#B48943;}
</style>
<title>Fichier 7</title>
<g>
	<g id="Travail_4">
		<path class="st0" d="M21.2,87.5c-1.9-7,35.7-29.2,80.3-36.7c50.9-8.5,94.2,4.8,119.7,15.4l-33.5,49.6l-4.1,6.1
			c-16.6-11.6-34.9-20.5-54.2-26.4C70.7,77.8,23.4,95.2,21.2,87.5z"/>
		<path class="st1" d="M48.8,79c3.9-1.4,7.9-2.6,12-3.6c4.1-1,8.2-1.9,12.2-2.7c8.2-1.5,16.5-2.6,24.9-3.3c16.7-1.4,33.5-1,50.1,1.1
			c8.3,1.1,16.5,2.6,24.7,4.6c8.1,2.1,16.1,4.6,23.9,7.6c7.8,3.1,15.4,6.6,22.7,10.7c7.3,4.1,14.3,8.7,21,13.7
			c-13.6-9.8-28.3-17.7-43.9-23.7c-7.8-2.9-15.8-5.4-23.9-7.4c-8.1-2-16.3-3.5-24.6-4.5c-16.5-2.1-33.3-2.6-49.9-1.3
			c-8.3,0.6-16.6,1.6-24.8,3c-4.1,0.7-8.2,1.5-12.3,2.4C56.8,76.6,52.7,77.7,48.8,79z"/>
		<path class="st2" d="M45,360.2c-7.3,8.2-18.7,20.7-32.9,36c-2.3,2.3-12.9,13.5-12,29.3C0.7,436.5,7,452.5,17,452.7
			c8.8,0.2,15.3-12.1,16-13.3l178.2-203.6c-27.2-12.3-41.3-7.2-47.1-4c-3,1.6-5.3,3.6-27.6,27.1c-7.7,8.2-11.6,12.2-13.8,14.7
			C97.2,301.4,67.7,335,45,360.2z"/>
		<path class="st3" d="M439,476.8c3,13.1,64.4,21.8,85.6-0.3c2.9-3,9.7-11.4,19-11.3c5.7,0.1,9.7,3.3,11,4.1
			c7.5,5.1,27.7,1.8,82.4-34.1c-10.7-0.4-21.3-1.7-31.7-3.9c-21.3-4.5-36.4-7.6-46.5-20.4c-1.3-1.7-12.9-16.4-8.6-28.7
			c1.4-3.9,3.8-6,4.7-11.6c0.8-5.5,0-11.2-2.4-16.3c4.3-16.6,4.7-33.9,1.2-50.7c-3.2-15-8.8-25.2-15-36.5
			c-7.7-14.1-13.6-25.2-26.2-32.9c-5.3-3.2-20.1-12.3-27.5-6.7c-6.8,5.1-4.3,19.9-1.3,28.4c8.2,24,28.1,23.5,37.3,43.1
			c5.8,12.4,1.7,27.8-6.7,58.7c-9.8,36.4-14.7,54.5-29.8,69.3c-2.8,2.8-17.2,16.5-36.4,36.5C440.5,471.6,438.4,474,439,476.8z"/>
		<path class="st3" d="M117.5,277.7c-4.8-2.2-10.1-3.2-15.4-3c-6.6,0.3-8.7,2.4-18.4,5.3c-14.7,4.5-16.1,1.7-21.9,5.3
			c-6.6,4.2-5.7,8.5-13.6,20.7s-12.1,13.6-15.8,18.5c-1,1.5-1.9,3-2.6,4.6c-4.8,10-2.7,41.1,5.1,42c1,0.1,2-0.3,15-14.7
			c6.3-7,8.2-9.1,10.7-8.9c4.6,0.5,3.5,9.5,10.1,14.2c9.8,7.1,27.8-1.8,28.7,0.9c0.2,0.5-0.4,1-1.2,1.9s-1.9,2.1-2.8,3.1
			c-1.7,1.9-3.3,3.6-6.8,7.7c-4.8,5.5-10.5,11.4-12.6,13.6c-15.3,16.2-23.3,24.3-24.3,34.4c-1.3,13.5,6.2,29,17.8,34.4
			c7.9,3.7,12.3,0,29,0c13.2,0,14.2,2.3,35.5,5.3c33.5,4.8,32.6-0.5,50.4,4.8c14.6,4.3,19.7,9.3,35,10.7c7.5,0.7,15.1,0.3,22.6-1.1
			c24.9-4.4,61.9-2.9,116.7-0.6c88.5,3.7,111.7,18.4,116.5,9.2C491,455.5,242,288.3,223.6,252.4c-1-2-6.3-13.3-13.6-13.3
			c-5.1,0-8.8,5.4-11.6,9.3c0,0-2.1,3-51.5,60.8c-1.6,1.9-3.8,4.3-6.4,4.1C132.2,312.7,134.2,285.6,117.5,277.7z"/>
		<path class="st3" d="M225,254c-5.7,0.8-11.4-9.4-16.4-18.2c-4.1-7.3-9.3-16.6-9.3-29.3c0-6.1,0-15,6.2-22.7
			c6.4-7.8,18.4-13.1,25.3-9.2c4.9,2.7,4.5,8.4,7.6,8.8c5.1,0.6,8.8-14.4,16.9-26.7c9.7-14.6,24.2-20.1,45.3-28
			c16.3-6.2,29.2-7.9,54.2-11.1c41.5-5.3,62.3-8,75.6,0.4c10.2,6.5,12.5,13.8,32,26.2c5.5,3.5,10,5.9,15.1,11.6
			c3.7,4.1,11.8,13,12,26.2c0,2.5,0.3,13.8-8,22.7c-6.6,7.1-17.1,11.1-26.7,9.8c-20-2.8-20.4-26.9-41.8-32
			c-10.4-2.5-20.5,0.7-33.8,4.9c-16.5,5.2-23,11.7-32.5,8.4c-8.4-2.9-9.1-10-16-10.2c-7.9-0.2-8.9,9.1-20,13.8
			c-13.1,5.5-20.8-4-30.2,2.2c-7,4.6-3.7,10.4-13.8,20c-2,1.9-11,10.5-17.8,8c-3.8-1.4-3.9-5.2-6.2-5.3
			C236.3,223.9,234.1,252.8,225,254z"/>
		<path class="st4" d="M99.6,362.8c18.4-10.8,35.4-28.8,37.6-50.8"/>
		<path class="st4" d="M210.3,240.5c1.3,6.4,10.1,12.5,16.7,14"/>
		<path class="st4" d="M384.5,142.8c9.9,4.4,31.5,33.6,22.4,34.3"/>
		<path class="st4" d="M313.4,150.7c-9.5,0.6-24,40.6,4.3,36.5"/>
		<path class="st5" d="M242.7,223.4c-11.4,7.8-4.7,14.8-19.1,32.4c-10.8,13.3-18,15-25.3,29.3c-4.7,9.3-6.9,18.6-5.8,19.1
			s6-8.7,7.6-8s-4.4,10.4-0.9,20.5c1.5,4.3,3.6,5.3,4,9.8c0.4,4.6-1.4,6.9-2.7,11.6c-1.5,5.5-0.7,10.1,0.9,19.6
			c2.1,12.4,4.7,13.6,4.4,21.3c-0.2,7.3-2.6,9-3.6,14.7c-3.1,18.6,15.8,40.5,23.1,38.2c5.2-1.6,3.3-14.9,8.4-16
			c6.5-1.4,14.9,18.1,19.6,16.4c2.3-0.8,0.9-5.8,3.1-7.1c7.3-4.3,41.3,40.5,43.1,39.1c1.2-0.9-12.7-20-10.2-22.2
			c3.1-2.8,29.7,24.5,34.7,20.4c3-2.5-4.4-14.7-1.8-16.4c4.7-3.2,30.5,36,49.8,30.7c3.8-1.1,3.7-2.8,8.4-4
			c11.6-2.9,19.9,5.8,30.7,9.8c17.2,6.4,36.8-0.5,46.7-6.7c23.1-14.4,25.4-45.3,32-44c5.3,1,6.4,21.4,7.1,21.3s-4.3-15.5,2.7-24.9
			c2-2.3,3.8-4.9,5.3-7.5c1.5-3,2.7-6.1,3.5-9.3c2.9-8.8,2.2-9.2,3.6-10.7c3.4-3.6,7.2-1.3,12-4.9c3.9-3,5.2-7.5,5.8-9.3
			c2.6-9-2-16.7,0-17.8c1.8-1,5.7,4.8,7.1,4c2.9-1.6-8.6-26.8-6.2-28c1.3-0.7,5.5,7,8,6.2c3.6-1.1,1.2-18.8,0-25.3
			c-6.7-35.7-44.5-38.5-51.1-71.1c-1.5-7.7,1.1-11.5,1-18c-0.2-2.3-0.5-4.6-1-6.9c-2-9.2-8.9-21-20.2-27.3
			c-9.5-5.4-14.7-2.6-22.9-10c-2.9-2.6-3.1-3.8-6.6-6.5c-5.1-3.9-11.1-6.7-17.4-8c-10.2-2.1-10.7,2.6-22.2,0.8
			c-6.7-1-9.2-2.9-15.1-2c-2.4,0.4-6.6,1.1-10.3,4.2c-5.4,4.6-4.5,10.4-9.3,11.9c-2.5,0.8-4.8,0.1-6.8-0.6
			c-5.1-1.6-5.5-4.3-11.8-7.9c-2.8-1.6-5.6-3.2-9.6-3.4c-0.9-0.1-3.9-0.2-9.1,1.8c-6.7,2.6-7.4,5-13.5,8.3
			c-4.6,2.4-9.5,3.9-14.6,4.6c-6.8,1.1-7.8-0.3-15.9,1.1c-6.9,1.2-9.5,2.8-11.1,4c-2.3,1.9-4.2,4.2-5.5,6.9
			C260.6,216.6,251,217.7,242.7,223.4z"/>
		<path class="st5" d="M175.9,193c15.4-11.2,1.9-37.4,7.7-71.1c6.2-35.6,32.7-73.5,68-82.5c11.8-2.9,24.2-2.9,36,0
			c16-6.6,33-10.3,50.2-11.1c15.1-0.9,30.3,0.7,44.9,4.9c30.7,9,70.4,33.7,70.2,57.3c0,4.4-1.5,13.4,1.8,25.8
			c1.1,4.5,2.8,8.8,4.9,12.9c8.2,15.2,28.2,30.1,41.8,25.3c12.1-4.2,15.5-22.7,18.2-21.8c3.2,1.1-5.2,25,1.8,29.3
			c6.3,3.9,20.5-10.8,23.6-8c4.2,3.9-19.4,34.1-13.8,39.6c2,1.9,6.7-0.4,7.5,1.3c1.7,3.3-14.6,12.5-12.9,17.3
			c1.4,4,14.1,0.7,15.5,4.4c1.5,3.9-10.4,15.9-24.9,17.8c-21.2,2.8-44.2-16.8-42.2-28.4c0.8-4.9,5.3-4.5,8.6-11.2
			c6.1-12.6-1.8-30.8-12.7-39.8c-1.9-1.5-10.4-8.6-16.6-5.9c-2,0.9-2.3,2.1-4.5,2.7c-6.1,1.6-12.6-5.8-13.3-5s4.2,5.9,3.9,6.2
			c-0.5,0.5-11.6-12.5-27.5-16.9c-0.6-0.2-6.7-1.8-7.5-0.3c-0.9,1.8,6.9,6.2,6,8.7c-1,2.7-11.2,1.2-18.7,0.2
			c-6.4-0.9-11.9-1.7-18.7-4.4c-7.4-2.9-6.5-4.2-10.7-5c-9.4-1.9-18.4,3.6-22.8,6.2c-5.4,3.2-4.8,4.2-9.9,6.8c-4,2-12.4,6.3-17.6,3
			c-3.7-2.3-2.9-6.5-5.9-7.4s-6.5,2.5-12.4,8.6c-13.6,13.8-17.1,17.6-18.4,16.9c-2.2-1.2,3.4-15.3,2.4-15.7s-4.2,11.8-11.9,13.3
			c-3.6,0.7-5.3-1.6-7.4-0.3c-5.1,3,0.6,18.4-3.3,20.1c-2.4,1.1-6.5-4-7.4-3.3c-1.3,1.1,8.3,11.6,6.5,13.9s-16.6-2.8-20.1-12.7
			c-1-2.9-0.3-5.8-2.7-8s-6.1-2.2-8.3-2.1c-4.2,0.3-8.2,1.7-11.5,4.3c-4.8,3.6-8.3,8.7-10.1,14.4c-7.3,21.8,13.5,47,8.6,50.7
			c-2.4,1.8-7-4.3-19-8.3c-7.5-2.5-19-6.7-28.7-1.8c-1.7,0.9-3.9,2.9-8.4,7.1c-13.5,12.7-14.6,16.4-18.6,16.6
			c-8.4,0.5-18.6-15.1-15.2-20.8c3.8-6.3,24.3,1.9,26.8-3.5c2.4-5.1-14.3-16.1-12.1-19.9c2.3-4.1,23.8,4.5,25.2,1.5
			c0.9-2.1-9.5-6.7-8.9-11.5C152.1,197.9,166.9,199.6,175.9,193z"/>
		<path class="st5" d="M288.4,0.1c-2.1-0.8-6.6,3.8-8.3,8.7c-2.9,8.7,3.3,17,4.3,18.2c-1-0.3-2.6-0.8-4.4-1.5
			c-4.8-1.7-5.5-2.2-7.4-2.4c-2.2-0.1-4.5,0.4-6.5,1.3c-3.3,1.2-6.8,3.4-6.5,4.1s3.5-0.7,7.9,0.4c1.9,0.6,3.7,1.4,5.3,2.5
			c5.5,3.3,6.4,5.3,10.8,7.4c2.8,1.3,4.1,1.9,5.5,1.8c6.9-0.7,7.5-14.2,15.7-16.1c3.5-0.8,6.2,0.9,7-0.5c0.8-1.5-1.6-5.6-4.6-6.2
			c-6.1-1.2-11.9,12.8-15.3,11.6c-1.3-0.5-1.4-3-1.8-15.4C289.7,3.1,289.7,0.6,288.4,0.1z"/>
		<path class="st6" d="M555.5,262.9c-1.6,0.9-4.4,3.1-7.1,15.4c-2,9.3-3,18.9-3,28.4c-0.5,31.4-0.8,29.2-0.6,32.3
			c0.8,11,1.9,25,7.4,35.9c15.7,30.8,66.3,33.6,91,31.1c11.3-1.1,34.5-3.5,46.2-20.1c3.3-4.8,5.2-9.8,7.3-15.9
			c4-11.1,5.3-20.4,6.6-36.9c2.2-27.1,3.2-40.9,0.4-52.2c-0.9-3.5-6.3-25.4-15-25.8c-5-0.2-5.5,7-14.9,13.6c-2.9,2-7.8,4.9-33.3,9.3
			c-14.4,2.5-21.6,3.8-24.6,3.6c-14-1.1-27-8.8-37.6-13.6C568.6,263.7,561.2,259.6,555.5,262.9z"/>
		<path class="st7" d="M610.8,281c-10.4,13.1-9.2,43.5-6.5,65.4"/>
		<path class="st7" d="M667.5,277.5c5,17.5-0.7,38.3-1.5,38.3"/>
		<path class="st7" d="M569.2,272.3c-5.6,7.6-7.5,20.2-5.7,27.4"/>
		<path class="st7" d="M577.9,393.9c-5.6-13.3-5.7-37.9-2.8-40.3"/>
		<path class="st7" d="M643.1,401.6c16-21.3,15.4-40.2,14.2-49.4"/>
		<path class="st7" d="M637,280.3c0,19.7-1.1,35.6-2.4,35.6"/>
		<path class="st7" d="M685.8,258.5c10.1,39.6,5.6,68.9,2.6,76.6"/>
		<path class="st7" d="M685.8,388.2c8.4-20.4,11.5-26.6,11.4-39.7"/>
		<path class="st7" d="M560.4,386c-9.3-13.8-6.6-27.2-5.1-30.3"/>
		<path class="st8" d="M555.2,261.8c-2-5.9,0-13.6,1.5-19.6c1.3-4.8,3-9.4,5.3-13.8c9.8,5,20,8.9,30.7,11.5
			c19.8,5,35.5,4.6,45.3,4.2c13.8-0.5,23.5-0.9,35.1-6c6.9-3,13.3-7,18.9-12c5.6,10.7,7.1,23.1,4.1,34.8c-1.2,1.8-2.6,3.6-4.1,5.2
			c-9.6,10.1-22.6,12.6-40.2,14.2c-23.7,2.2-44.3,3.9-70.5-3.1C561.8,272.1,556.8,266.7,555.2,261.8z"/>
		<path class="st8" d="M553.6,377.1c-1.1-1.8-2.1-3.8-2.9-5.8c-1.8,7.6-2.4,15.5-2,23.3c0.5,8.8,0.8,14.8,4.9,20.7
			c3.7,5.4,8.4,7.5,17.6,11.8c8.3,3.7,17,6.4,26,8c8.4,1.5,17,2.2,25.5,2c7.9-0.2,15.9-1,23.7-2.5c7.8-1.3,11.7-2,16.8-3.8
			c8-2.8,18.2-6.2,24.9-15.8c3.2-4.8,5.4-10.1,6.4-15.8c0.5-2.2,0.8-6.2,1.3-14.1c0.8-10.8,1.1-13.3,0-13.7c-1.8-0.7-5.5,5-7.2,7.3
			c-11.8,16-35.2,19.9-47.9,22c-18.3,3-31.7,0.2-48.9-3.9C575.5,393.1,561.4,389.5,553.6,377.1z"/>
		<path class="st9" d="M565.6,222.7c0.2-0.8,1.1-3.7-0.4-5.6c-1-1.3-2.3-0.8-3.4-1.8c-2.5-2.1-1.9-9.9,2.4-13.8
			c4.1-3.6,8.5-1,13.6-5.6c2.4-2.1,2-3.2,4-4.2c4-2,6.6,1.7,12.7,0.9c3.6-0.5,6.9-2.2,9.4-4.7c2.3-2.3,1.8-3.2,3.8-5.6
			c2.6-3.2,7.8-6.7,13-6.4c5.1,0.3,5.4,3.9,13,5.2c2.6,0.4,3.4,0.2,5.8,1c3.7,1.2,4.9,2.8,7.5,2.5c1.4-0.3,2.8-0.9,3.8-1.9
			c2.4-1.9,2.7-3.7,4.3-5.8c0.4-0.5,3.9-5.1,8.4-5.2c4.9-0.1,10.2,4.9,10.7,9.3c0.1,1.6,0.4,3.1,1,4.5c0.6,1.3,1.4,2.4,2.4,3.5
			c4,5.1,3.7,5.2,4.9,6.1c2.6,2.2,3.6,1.3,5.6,3c4.4,3.6,5.8,12.9,2.4,18.4c-0.9,1.4-2,2.5-2,4.4c0,2.9,2.4,3.6,2.6,5.9
			c0.4,5.1-12.3,10-13.3,10.4c-3.5,1.3-4.8,1.2-9.8,3.3c-3.6,1.4-3.8,1.9-6.4,2.7c-3.3,1-6.7,1.5-10.1,1.5c-4.1-0.1-4-0.9-7.5-0.7
			c-2.2,0.1-2.5,0.4-7.1,0.9c-2.2,0.2-3.6,0.4-5.6,0.4c-2.6,0.1-3.5-0.1-6.5-0.1c-3.6,0-4,0.2-6.5,0.1s-10.9-0.2-16.4-2.8
			c-1.1-0.6-2.3-0.9-3.5-0.9c-1.7,0-2.4,0.7-4,1c-2.2,0.4-4.4,0.1-6.4-0.9c-3.7-1.4-3.4-3.2-6.2-3.9s-3.7,1-6.2,0.1
			c-2.7-0.9-2.4-3-5.3-5.2c-4-2.9-8.1-1.6-8.6-3.4C561.2,227.8,564.4,226.9,565.6,222.7z"/>
		<path class="st3" d="M337.7,247.1c-3.7,3.8-5.5,13.4-3.8,22.5c0.6,3.4,1,6.3,1.7,8.6c1.1,4,2.5,7.9,4.1,11.7
			c2.5,6,4.9,11.4,9.9,16.4c3,3,8.3,8.3,16.7,9.2c9.6,1,16.6-4.3,18.1-5.5c5.3-4.3,7.2-9.6,9.3-15.3s1.9-10.3,2.8-22.7
			c0.4-6.5,0-13-1.1-19.4c-1-6.5-2.8-9.8-7.1-11.8c-2.3-1.1-2.7-0.6-4.1,1.3c-2.1,2.7,2.3,6.5,3.1,15c0.1,1.7-0.2,2.4-2.1,15.2
			c-1.2,8.2-1.9,12.3-2.7,14.2c-3.1,8-11.3,16.5-17.8,15.1c-4.3-0.9-6.7-5.8-10.7-13.6c-1.9-3.7-3.3-6.5-4.7-9.5
			c-0.5-1.1-2.3-4.8-3-6.5c-5.3-12.2-2.2-22.4-6.2-23.9C337.7,247.1,337.8,247,337.7,247.1z"/>
		<path class="st10" d="M342.5,255.4c3.1-2.8,6.6-1,16.9-0.7c17.6,0.5,22.2-4.4,26.4-0.7c4.9,4.3,2.8,14.2-0.4,28.4
			c-2.6,11.7-5,15.9-8.5,18.5c-2.7,2-5.9,3.2-9.2,3.3c-6.2,0.2-10.6-3.5-13.5-5.9c-9-7.5-11.4-17.7-12.7-23
			C340.2,269.5,337.7,259.6,342.5,255.4z"/>
		<path class="st11" d="M384.9,258.5c1.5-0.7,2.8-1.6,3.8-2.9c0.9-2.4,1.3-5,1.1-7.6c-0.4-4-2.1-7.8-4.9-10.7
			c-4.5-4.9-10.3-5.8-14-6.4c-3.3-0.6-15.8-2.6-25.3,5.6c-1.3,1.1-9.3,7.9-8.2,16.7c0.4,3.6,2.5,8.6,6.2,9.8"/>
		<path class="st12" d="M202.7,363.8c4.8-14.5,30.6-18.5,33.8-13.5c1.3,2-1.8,4-5.3,15.5c-2.4,7.5-1.7,8.8-3.7,11
			c-4.8,5.5-16.9,7.2-22.5,1C201.4,374,201.3,368,202.7,363.8z"/>
		<path class="st12" d="M206.3,382.7c5.4-5,15.7-4.6,21.8,0.5c4.9,4.1,5.8,10.1,6.2,12.9c0.4,2.5,0.3,4.5-4.7,21.3
			c-2.6,8.8-3.4,11.1-5.6,11.8c-3.5,1.1-7.6-2.9-9.8-5.1c-5.1-5-6.8-10.4-9.8-20.2c-2.9-9.7-2.6-13.4-1.3-16.5
			C203.8,385.6,204.9,384,206.3,382.7z"/>
		<path class="st12" d="M445,245.5c5.3-7.4,23.7-1.4,24.8-1c0,0,16.4,5.4,23.8,22c1.4,3.2,1.8,5.2,0.9,6.5c-1.7,2.5-6.6,0.4-16,2.4
			c-1,0.2-1.9,0.4-2.9,0.5c-0.4,0-6.1,0.8-9.6-1.8c-0.7-0.6-1.4-1.3-1.9-2c-1.1-1.3-2.1-2.3-8.9-7.9c-9.6-8-10.6-8.4-11.2-10.6
			C443.2,250.8,443.5,247.9,445,245.5z"/>
		<path class="st12" d="M476.3,293.6c-4.5-4-4.4-12.8-0.7-17.8c6.1-8.3,23.2-7.7,27.8,0.7c2.9,5.3-0.2,12.1-0.9,13.6
			c-3.3,2.4-10,6.5-18.5,6C481.5,295.9,478.6,295.6,476.3,293.6z"/>
		<path class="st12" d="M488.9,316.7c-7.1-4.7-10.8-13-9.6-21.4c6.3-8.3,17.8-9.6,24.7-4c7.6,6.2,8,19.3,1.1,24.7
			C501,319.3,494.7,319.3,488.9,316.7z"/>
		<path class="st12" d="M507.1,382c4.4,0.9,13.4-13.7,14.9-28.9c0.4-3.9,1.3-18.1-7.5-29.6c-2.4-3.1-6.1-7.8-12.2-8.7
			c-0.5-0.1-7.7-1-12,3.3c-9.2,9.3,2.6,35,4.4,38.9c2.8,6.1,4.9,8.2,8.4,17.1C505.4,379.8,505.7,381.7,507.1,382z"/>
		<path class="st12" d="M237.1,313c-3.6-2.9-10.4,0.1-16.1,2.7c-1.7,0.7-5.3,3-12.4,7.4c-5.4,3.3-6.4,4-7.3,5.5
			c-2.6,4.2-2.7,11,0.7,14.1c3.1,2.8,7.9,1.4,17.5-1.5s15-4.4,18.1-9.8c1.8-3.4,2.5-7.3,2.1-11.1C239.3,317.3,239,314.6,237.1,313z"
			/>
		<path class="st12" d="M238.4,346.2c3.2-4.9,3.7-12.4,0.9-14.4c-3.1-2.2-7.2,4.2-19.4,7.4c-10,2.6-16.4,0.8-19.4,5.5
			c-1.6,2.5-1.5,5.6-1.5,6.8s0.1,6.7,3.1,8.7c2.7,1.8,6.1-0.2,14.8-3.9C232.6,349.9,235.6,350.6,238.4,346.2z"/>
		<path class="st12" d="M363.6,191.8c-9.2,3.3-15.5-11.6-30.2-12c-11.1-0.3-11.4,8.2-28.5,13.3c-17.6,5.3-26.5-1-33.8,6.7
			c-6,6.4-6.2,17.5-4.4,18.2c1.5,0.6,5.8-6.5,6.2-6.2c0.6,0.4-12.4,18.2-9.3,21.3c2.2,2.2,11.4-4.5,12.9-2.7
			c1.8,2.3-13.5,13-11.1,22.7c1.1,4.7,5.2,4.1,8.9,11.6c0.9,1.8,4,8.2,2.7,15.6c-1.2,6.5-4.5,6.9-5.8,12.9
			c-1.4,6.6,1.5,12.3,4.5,18.2c3.4,6.7,11.7,19.4,16.4,17.8c6.2-2.1,3.1-27.5,3.6-27.6s-0.6,17.1,1.8,17.5
			c2.7,0.5,12.2-20.6,4.9-29.7c-2.5-3.1-5.7-3.3-8-7.8c-1.8-3.4-2.6-8.6-0.5-12.4c3.1-5.5,9.8-2.9,17.6-7.6
			c11.1-6.6,13.8-21.2,14.1-21s-7.6,16.8-5.6,18.1c1.2,0.8,6-4.1,9.2-8.6c4.3-6.1,6.1-12,6.5-11.9s-3.7,10.5-1.2,12.2
			c1.5,1,5-1.7,8.4-4.4c9.2-7.3,12.1-13.7,17.7-13.7c1.1,0,2.2,0.2,3.2,0.5c3.3,1.3,4.4,4.7,12.4,7.5c1.4,0.5,2.8,0.9,4.3,1.1
			c10,1.9,18.9,3.6,20.5,0.7c1.4-2.7-3.7-8.2-3.5-8.3s5.8,9.4,8,8.6c1.6-0.6,0.3-5.8,2.1-6.5s3.9,4.6,9.7,7
			c4.6,1.9,6.1-0.4,10.1,1.4c5,2.4,8.2,7.4,8.5,12.9c0,5.9-5.1,6.9-6,13.3c-0.8,6.1,2.9,11.1,7.3,17.1c2.9,3.9,11,14.9,16.4,13
			c3-1.1,3.7-5.6,5.1-14.4c1.8-11.1,2.9-18.2-1.1-23.8c-3.8-5.2-8.2-3.9-10.2-8.9c-2.2-5.2,2.1-8.2,1.8-15.8
			c-0.4-10.3-8.8-17.6-8.2-18s9.4,10.4,10.2,9.8c1-0.7-10.6-18.9-10.2-19.1s8.7,14.8,12.2,13.6c2.3-0.8,2.2-8.6,0.9-14.4
			c-3.2-14.3-16.2-29.6-32.4-32.4c-8.4-1.5-9.7,1.9-24.9,0.4c-10.7-1.1-14-3.1-19.1-0.9C368.8,180.4,370.4,189.3,363.6,191.8z"/>
		<path class="st12" d="M326.6,123.7c-4.1,0.1-8.1-11.5-9.8-19.6c-2.6-12.8,0.7-16.8-3.3-25.9c-1.2-2.7-5-11.4-10.6-11.7
			c-8.8-0.4-15.8,20.3-18.4,19.1c-1.1-0.5-0.6-4.4-0.1-8.4c0.4-3,0.5-4.5,1.3-6.4c1.9-4.5,5-5.5,4.5-7.7c-0.4-1.5-2.1-2.4-3.3-2.7
			c-3.1-0.8-5.4,1.7-6.1,1c-0.9-0.9,1.6-5.7,5.8-9.2c2.3-1.9,4.8-4,8-4.1c6.3-0.1,10.1,7.6,12.3,6.4s-0.7-8.9,1-9.6
			c1.9-0.8,6.7,8.2,9.2,7.3c2-0.7,0.8-7.5,1.9-7.7c1.5-0.3,4.8,10.3,6.2,14.7c2.7,8.6,4.3,15.2,4.9,17.6c1.4,5.2,2.5,10.5,3.3,15.8
			c1.9,14.7-0.4,21.2-1.2,23.3C331,119,329.1,123.6,326.6,123.7z"/>
		<path class="st12" d="M363.8,107.7c-2.7-2.2-1.4-5.3-2.7-13.6c-1.1-7.1-3-11.5-1.6-12.3c1.1-0.6,2.5,1.8,4.2,1.3
			c1.2-0.3,2.4-2,3.8-13.6c0.7-6,1.1-9,1-10.5c-0.1-3.5-0.4-7.1,1.2-11.6c1.1-3.2,2.2-3,7.3-9.3c4.5-5.7,6.5-9.8,7.7-9.4
			c1.3,0.5-1.1,6.2,1.5,8.5c1.8,1.5,4.9,0.7,7,0.1c7-2,11-6.8,11.5-6.3s-6.1,6.7-4.5,10.7c1.4,3.5,8.3,2.9,9,6.3
			c0.4,1.8-1.3,3.5-1.4,3.6c-2.4,2.4-6.2,0.7-6.8,1.9c-1.3,2.5,13.3,11.9,12.2,13.9c-0.5,0.9-3.7,0-5.3-0.4c-5.2-1.4-6.5-3.4-11-5.3
			c-3.2-1.4-8.2-3.5-12-1.5c-1.4,0.7-2.8,2.1-4.4,6.5c-2.3,6.1-1.8,9.7-2.5,19.3c-0.6,6.1-1.9,12.1-4,17.8c-0.6,1.6-1.6,4.1-4,5
			C367.8,109.4,365.5,109,363.8,107.7z"/>
		<path class="st4" d="M138.7,463.8c13.6-26,56.4-30.2,66.4-52.1"/>
		<path class="st4" d="M529.3,388.2c0,42.6,6.4,77.1,14.3,77.1"/>
		<path class="st12" d="M277,260.8c-4.3-4.7-4.3-14.1-11.2-13.3c-11.1,1.2-37.1,16.3-43.3,26.9c-12.9,21.9-17,13.6-20.8,20.7
			c-3.1,6.1-4.1,13-3,19.7c0.8,4.4,1.5,7.9,4.3,10c9.2,6.9,31.4-9.6,34.2-11.8c5.7-4.3,19.4-7.9,26.1-13.1
			c15.2-11.9,11.1-10.8,14.6-20.7c0.6-2,1-4.2,1.2-6.3C279.2,270.3,279.8,263.9,277,260.8z"/>
	</g>
</g>
</svg>
