<?xml version="1.0" encoding="utf-8"?>
<!-- Generator: Adobe Illustrator 23.0.1, SVG Export Plug-In . SVG Version: 6.00 Build 0)  -->
<svg version="1.1" id="Capa_1" xmlns="http://www.w3.org/2000/svg" xmlns:xlink="http://www.w3.org/1999/xlink" x="0px" y="0px"
	 viewBox="0 0 512 512" style="enable-background:new 0 0 512 512;" xml:space="preserve">
<style type="text/css">
	.st0{fill:#533825;}
	.st1{fill:#8C9341;}
	.st2{fill:#FFDB56;}
	.st3{fill:#156893;}
	.st4{fill:#FFBB24;}
	.st5{fill:#A8449A;}
	.st6{fill:#931581;}
	.st7{fill:#113446;}
</style>
<g>
	<path class="st0" d="M511.9,475.7l-40.2-221.6c-0.4-2.2-1.8-4.1-3.7-5.2l-101.2-56.3c-1.3-0.7-2.8-1-4.2-0.9l18.4,237.6l-0.6,0.3
		l121.2,54.4c1,0.4,2,0.7,3.1,0.7c1.7,0,3.3-0.5,4.6-1.6C511.3,481.2,512.4,478.4,511.9,475.7z"/>
	<path class="st0" d="M256,246.4l-103.5-53.9c-1.2-0.6-2.6-0.9-4-0.8c0.4,0,0.7,0,1.1,0l-18.4,237.6l121.8,54.6c1,0.4,2,0.7,3.1,0.7
		l0,0V246.4z"/>
</g>
<g>
	<path class="st1" d="M149.6,191.6c-1.4-0.1-2.9,0.2-4.2,0.9L44.1,248.9c-2,1.1-3.3,3-3.7,5.2L0.1,475.7c-0.5,2.7,0.6,5.5,2.8,7.3
		c1.3,1.1,3,1.6,4.6,1.6c1,0,2.1-0.2,3.1-0.7l120.5-54.1L149.6,191.6z"/>
	<path class="st1" d="M362.4,191.6c-1,0.1-2,0.3-2.9,0.8L256,246.4v238.2c0,0,0,0,0,0c1,0,2.1-0.2,3.1-0.7l121.8-54.6L362.4,191.6z"
		/>
</g>
<polygon class="st2" points="28.2,321.2 20,366.3 141,302.3 143.8,266.1 144.3,260.1 "/>
<path class="st3" d="M142.1,288.3l-1.1,14.1L20,366.3L0.1,475.7c-0.5,2.7,0.6,5.5,2.8,7.3c1.3,1.1,3,1.6,4.6,1.6
	c1,0,2.1-0.2,3.1-0.7l120.5-54.1L142.1,288.3L142.1,288.3z"/>
<g>
	<polygon class="st4" points="256,276.1 144.3,260.1 141,302.3 256,477 256,413.5 187.4,305.4 256,313.6 	"/>
	<polygon class="st4" points="459.9,244.4 411.3,217.4 365.3,228.1 365.8,235.6 368.1,264.9 	"/>
</g>
<polygon class="st2" points="372.2,317.6 367.8,261.3 367.8,261.3 365.3,228.1 256,276.1 256,313.6 327.4,282.6 "/>
<path class="st4" d="M511.9,475.7L501.8,420L368.1,264.9l4.1,52.7l137.1,165.2C511.4,481.1,512.4,478.4,511.9,475.7z"/>
<path class="st5" d="M256.5,27.5c-58,0-105.1,47.1-105.1,105c0,35.8,17,74.3,50.6,114.3c24.6,29.4,48.9,48.3,50,49.1
	c1.4,1,3,1.6,4.6,1.6c1.6,0,3.2-0.5,4.6-1.6c1-0.8,25.3-19.7,50-49.1c33.5-40,50.6-78.5,50.6-114.3
	C361.6,74.6,314.4,27.5,256.5,27.5z M295.4,132.5c0,21.5-17.4,38.9-38.9,38.9s-38.9-17.4-38.9-38.9s17.4-38.9,38.9-38.9
	C278,93.6,295.4,111,295.4,132.5z"/>
<path class="st6" d="M256.5,27.5c-4.6,0-9.1,0.3-13.6,0.9c51.6,6.7,91.6,50.8,91.6,104.2c0,35.8-17,74.3-50.6,114.3
	c-15.8,18.9-31.5,33.5-41,41.7c5.3,4.6,8.6,7.2,9,7.4c1.4,1,3,1.6,4.6,1.6c1.6,0,3.2-0.5,4.6-1.6c1-0.8,25.3-19.7,50-49.1
	c33.5-40,50.6-78.5,50.6-114.3C361.6,74.6,314.4,27.5,256.5,27.5z"/>
<path class="st2" d="M259.1,483.9l45.3-20.3L256,413.5v71c0,0,0,0,0,0C257,484.5,258.1,484.3,259.1,483.9z"/>
<g>
	<path class="st7" d="M471.7,254.1c-0.4-2.2-1.8-4.1-3.7-5.2l-8-4.4l-91.8,20.5l0,0L501.8,420L471.7,254.1z"/>
	<path class="st7" d="M256,484.5C256,484.5,256,484.5,256,484.5V477L141,302.3l-9.8,126.9l121.8,54.6
		C253.9,484.3,255,484.5,256,484.5z"/>
</g>
</svg>
